<?xml version="1.0" encoding="utf-8"?>
<!-- Generator: Adobe Illustrator 23.0.3, SVG Export Plug-In . SVG Version: 6.00 Build 0)  -->
<svg version="1.1" id="Layer_1" xmlns="http://www.w3.org/2000/svg" xmlns:xlink="http://www.w3.org/1999/xlink" x="0px" y="0px"
	 viewBox="0 0 1056.3 808.9" style="enable-background:new 0 0 1056.3 808.9;" xml:space="preserve">
<style type="text/css">
	.st0{opacity:0.1;fill:#38D39F;enable-background:new    ;}
	.st1{fill:#38D39F;}
	.st2{fill:none;stroke:#565987;stroke-miterlimit:10;}
	.st3{opacity:0.1;enable-background:new    ;}
	.st4{fill:#FFD037;}
	.st5{fill:#A8A8A8;}
	.st6{opacity:0.2;enable-background:new    ;}
	.st7{fill:#EFB7B9;}
	.st8{opacity:5.000000e-02;enable-background:new    ;}
	.st9{fill:none;}
	.st10{fill:#65617D;}
	.st11{fill:#DCE0ED;}
	.st12{opacity:0.1;fill:#FFFFFF;enable-background:new    ;}
	.st13{fill:#444053;}
	.st14{fill:#A36468;}
	.st15{fill:#965D7B;}
	.st16{opacity:0.1;}
	.st17{fill:#DDA2A6;}
	.st18{fill:#B77B7F;}
	.st19{opacity:0.3;fill:#FFFFFF;enable-background:new    ;}
</style>
<g>
	<path class="st0" d="M972.6,226.7C948.5,108,840.9,18.6,711.7,18.6c-43.3-0.1-85.9,10.2-124.4,30c-98.9-68.6-231.1-64.2-325.1,11
		c-33.3,0.4-66.2,7-97.1,19.3l478.6,67.2l-581.3,5.7c-17.3,20-31.4,42.5-41.9,66.8L972.6,226.7z"/>
	<path class="st0" d="M0,321.9h403L8.5,383.1c22.8,85.3,89.3,153.6,174.9,180.7c42.7,87.4,134.3,147.9,240.5,147.9
		c71.5,0,136.5-27.5,184.3-72.1c47.7,43.8,112,70.7,182.8,70.7c140.6,0,255.8-106,265.4-240.3l-319.3-34l312-46.5
		c-5.3-20.8-13.2-40.8-23.6-59.6L18.1,224.1C6.1,254,0,285.9,0,318C0,319.3,0,320.6,0,321.9z"/>
	<ellipse class="st0" cx="1028.2" cy="738.8" rx="25.8" ry="3.5"/>
	<ellipse class="st0" cx="929.3" cy="748.8" rx="25.8" ry="3.5"/>
	<ellipse class="st0" cx="812.8" cy="735.3" rx="25.8" ry="3.5"/>
	<ellipse class="st0" cx="968.9" cy="777.4" rx="18.4" ry="2.5"/>
	<ellipse class="st0" cx="866.2" cy="774.9" rx="18.4" ry="2.5"/>
	<path class="st1" d="M925.9,715.3c0,0-4.1-52.3-69.9-90.4c-39.3-22.8-40.3-42.3-34.8-54.3c3.7-7.8,10.7-13.6,19-15.8
		c15.9-4.4,51.5-8.7,82.8,26.9c41.9,47.5,5.7,166.3,5.7,166.3L925.9,715.3z"/>
	<path class="st2" d="M928.7,748c23.9-143-82.8-176.4-82.8-176.4"/>
	<path class="st2" d="M898.2,608.4c-4.7-14.9,10-24.8,10-24.8"/>
	<path class="st2" d="M876.5,588.4c-10.9-5-19.9,4.1-19.9,4.1"/>
	<path class="st2" d="M918.7,640.5c-4.1-10-19.9-2-19.9-2"/>
	<path class="st2" d="M925.8,659.9c0.2-5.7,12.1-4.7,12.1-4.7"/>
	<path class="st1" d="M869.1,697.5c-2.9-6.6-3.7-14-2.3-21.1c1.2-5.5,3.7-10.9,9.2-11.8c11.6-1.9,54.1,84.4,54.1,84.4
		C891.4,737.5,875.1,711.2,869.1,697.5z"/>
	<path class="st2" d="M929.5,748.4c-8.6-2.8-53.1-67.4-53.1-67.4"/>
	<line class="st2" x1="882.7" y1="691" x2="872.3" y2="691"/>
	<line class="st2" x1="901.1" y1="715.3" x2="884.8" y2="714.7"/>
	<line class="st2" x1="892.9" y1="704.2" x2="894.7" y2="695.8"/>
	<line class="st2" x1="911.7" y1="729.3" x2="912" y2="721.6"/>
	<path class="st1" d="M989.9,697.4c2.9-6.6,3.7-13.9,2.3-21c-1.2-5.5-3.7-10.9-9.2-11.8c-11.6-1.9-54.1,84.4-54.1,84.4
		C967.7,737.5,983.9,711.2,989.9,697.4z"/>
	<path class="st2" d="M929.5,748.4c8.6-2.8,53.1-67.4,53.1-67.4"/>
	<line class="st2" x1="976.4" y1="691" x2="986.8" y2="691"/>
	<line class="st2" x1="958" y1="715.3" x2="974.3" y2="714.7"/>
	<line class="st2" x1="966.2" y1="704.2" x2="964.4" y2="695.8"/>
	<line class="st2" x1="947.4" y1="729.3" x2="947.1" y2="721.6"/>
	<path class="st1" d="M861.9,773.1h9.2c0.1-0.2,0.1-0.4,0.2-0.5c0.8-1.2,1.8-2.2,3-2.9c1.6-0.9,3-2,4.3-3.4c1.1-1.5,1.4-3.7,0.2-5.1
		c-1-1.1-2.6-1.2-4.1-1.2c-0.9,0-1.8,0.2-2.5,0.6c-1.3,0.8-1.7,2.4-1.7,3.9c0.1,1.5,0.1,3-0.1,4.4c0-4-0.9-8.5-4.2-10.8
		c-1-0.7-2.6-1.1-3.5-0.2c-0.3,0.4-0.5,0.8-0.6,1.3c-0.5,2.3,0.3,4.6,2,6.2c-1.6,0.2-3.1-1-4.3-2.1c-1.2-1.1-2.9-2.2-4.5-1.6
		c-1.4,0.7-2.1,2.2-1.7,3.7c0.4,1.4,1.3,2.7,2.4,3.6C857.8,770.7,859.8,772,861.9,773.1z"/>
	<path class="st1" d="M1023.5,738.3h9.2c0.1-0.2,0.1-0.4,0.2-0.5c0.8-1.2,1.8-2.2,3-2.9c1.6-0.9,3.1-2,4.3-3.4
		c1.1-1.4,1.4-3.7,0.2-5c-1-1.1-2.7-1.2-4.1-1.2c-0.9,0-1.8,0.2-2.5,0.6c-1.3,0.8-1.7,2.4-1.7,3.9c0.1,1.5,0.1,3-0.1,4.4
		c0-4-0.9-8.5-4.2-10.8c-1-0.7-2.6-1.1-3.5-0.2c-0.3,0.4-0.5,0.8-0.6,1.3c-0.5,2.3,0.3,4.6,2,6.2c-1.7,0.2-3.1-1-4.3-2.1
		s-2.9-2.2-4.5-1.6c-1.4,0.7-2.1,2.2-1.7,3.7c0.4,1.4,1.3,2.7,2.4,3.6C1019.5,735.9,1021.4,737.2,1023.5,738.3z"/>
	<path class="st1" d="M969.6,773.1h9.2c0.1-0.2,0.1-0.4,0.2-0.5c0.8-1.2,1.8-2.2,3-2.9c1.6-0.9,3-2,4.3-3.4c1.1-1.5,1.4-3.7,0.2-5.1
		c-1-1.1-2.7-1.2-4.1-1.2c-0.9,0-1.8,0.2-2.5,0.6c-1.3,0.8-1.7,2.4-1.7,3.9c0.1,1.5,0.1,3-0.1,4.4c0-4-0.9-8.5-4.2-10.8
		c-1-0.7-2.6-1.1-3.5-0.2c-0.3,0.4-0.5,0.8-0.6,1.3c-0.5,2.3,0.3,4.6,2,6.2c-1.6,0.2-3.1-1-4.3-2.1c-1.2-1.1-2.9-2.2-4.5-1.6
		c-1.4,0.7-2.1,2.2-1.7,3.7c0.4,1.4,1.3,2.7,2.4,3.6C965.6,770.7,967.5,772,969.6,773.1z"/>
	<path class="st1" d="M806.4,714.2c6.2,0.2,13.8,12.9,13.8,12.9c1.7-4.3-2.5-10-7.5-16.9s-1.6-11.4-1.6-11.4
		C804.2,706.5,800.2,714,806.4,714.2z"/>
	<path class="st3" d="M806.4,714.2c6.2,0.2,13.8,12.9,13.8,12.9c0.1-0.2,0.1-0.4,0.2-0.6c-1.6-2.5-8.1-12.2-13.5-12.3
		c-5.8-0.2-2.6-6.8,3.5-13.9c0.2-0.5,0.4-1,0.7-1.4C804.2,706.5,800.2,714,806.4,714.2z"/>
	<path class="st4" d="M805,703.8c0.2,0,0.5-0.8,0.5,0.8s-0.2,2.9-0.4,2.9c-0.2,0-0.4-1.3-0.4-2.9S804.8,703.8,805,703.8z"/>
	<path class="st4" d="M801.9,705.8c0.1-0.2-0.4-0.7,1,0c1.4,0.7,2.4,1.5,2.3,1.7c-0.1,0.2-1.3-0.2-2.7-1
		C801,705.8,801.8,706,801.9,705.8z"/>
	<path class="st1" d="M834.1,714.2c-6.2,0.2-13.8,12.9-13.8,12.9c-1.7-4.3,2.5-10,7.5-16.9s1.6-11.4,1.6-11.4
		C836.1,706.5,840.3,714,834.1,714.2z"/>
	<path class="st3" d="M834.1,714.2c-6.2,0.2-13.8,12.9-13.8,12.9c-0.1-0.2-0.1-0.4-0.2-0.6c1.6-2.5,8.1-12.2,13.5-12.3
		c5.8-0.2,2.6-6.8-3.5-13.9c-0.2-0.5-0.4-1-0.7-1.4C836.1,706.5,840.3,714,834.1,714.2z"/>
	<path class="st4" d="M835.4,703.8c-0.2,0-0.4-0.8-0.4,0.8s0.2,2.9,0.4,2.9c0.2,0,0.4-1.3,0.4-2.9S835.6,703.8,835.4,703.8z"/>
	<path class="st4" d="M838.6,705.8c-0.1-0.2,0.4-0.7-1,0c-1.4,0.7-2.5,1.5-2.3,1.7c0.1,0.2,1.3-0.2,2.7-1
		C839.4,705.8,838.8,706,838.6,705.8z"/>
	<path class="st5" d="M831.2,736.1c-2.9,1.8-17.4,3.6-28.3,3.5c-10.9-0.1,2.9-13.3,3.6-16.7s12.7-0.9,15.6,1.2
		c2.9,2.1,12.6,2.4,12.6,2.4S834.1,734.3,831.2,736.1z"/>
	<path class="st6" d="M798.7,736.7c-0.1,1.7,1,2.8,4.2,2.8c10.9,0.1,25.4-1.7,28.3-3.5c2.9-1.8,3.5-9.6,3.5-9.6h-0.3
		c-0.3,2.2-1.2,7.1-3.4,8.4c-2.9,1.8-17.4,3.6-28.3,3.5C800.3,738.4,799.1,737.8,798.7,736.7z"/>
	<ellipse class="st0" cx="443.9" cy="794" rx="329.4" ry="14.9"/>
	<path class="st7" d="M513.4,347.3c1.2,9-16.6,40.1-25.3,55.1c-5,8.4-11.5,15.8-19.3,21.9c-1.4,1.1-3.2,1.8-5.1,1.8
		c-5.6,0.1-18.5,0.8-26,3.6c-6.2,2.3-23.6,1.7-35.4,0.9c-7.1-0.5-14.2-1.6-21.1-3.5c-6-1.6-12.8-3.4-14.8-3.8
		c-3.7-0.8-14.9,1.2-14.9-4.1s-8.1-8.1-15.1,1.9c-5,7.1-9.6-4.3-11.9-11.5c-1.2-3.7-0.5-7.8,1.8-10.9c12.3-16.8,33.6,2.4,34.8,6.1
		c1.3,4,12.3,3.7,12.3,3.7s43.3-3.7,48.3-4.3s25.9-5.7,25.9-5.7c3.3-0.1,6.2-2.4,7.1-5.7c1.6-5.7,22.6-45.4,22.6-45.4
		S512.2,338.3,513.4,347.3z"/>
	<path class="st8" d="M513.4,347.3c1.2,9-16.6,40.1-25.3,55.1c-5,8.4-11.5,15.8-19.3,21.9c-1.4,1.1-3.2,1.8-5.1,1.8
		c-5.6,0.1-18.5,0.8-26,3.6c-6.2,2.3-23.6,1.7-35.4,0.9c-7.1-0.5-14.2-1.6-21.1-3.5c-6-1.6-12.8-3.4-14.8-3.8
		c-3.7-0.8-14.9,1.2-14.9-4.1s-8.1-8.1-15.1,1.9c-5,7.1-9.6-4.3-11.9-11.5c-1.2-3.7-0.5-7.8,1.8-10.9c12.3-16.8,33.6,2.4,34.8,6.1
		c1.3,4,12.3,3.7,12.3,3.7s43.3-3.7,48.3-4.3s25.9-5.7,25.9-5.7c3.3-0.1,6.2-2.4,7.1-5.7c1.6-5.7,22.6-45.4,22.6-45.4
		S512.2,338.3,513.4,347.3z"/>
	<path class="st9" d="M292.6,467.5l17.2,1.3c0,0-58,149.2-57,182.2c0.3,10.9-6.7,6.8-16.2-3.5C241.2,598.3,255.1,531.9,292.6,467.5z
		"/>
	<path class="st10" d="M154.7,719.4c0-45.6,36.9-82.5,82.5-82.5s82.5,36.9,82.5,82.5c0,1,0,2-0.1,3v0.1c0,1.3-0.1,2.7-0.3,4
		c-3.7,42.6-39.3,75.3-82,75.4C191.8,801.9,154.8,765,154.7,719.4L154.7,719.4z"/>
	
		<ellipse transform="matrix(0.9733 -0.2297 0.2297 0.9733 -158.9309 73.7195)" class="st11" cx="237.1" cy="719.4" rx="45" ry="45"/>
	
		<ellipse transform="matrix(0.9733 -0.2297 0.2297 0.9733 -158.9308 73.7195)" class="st10" cx="237.1" cy="719.4" rx="27" ry="27"/>
	<path class="st10" d="M455.7,549.5c0.4-2.6,0.8-5.4,1.2-8.2c0.6-3.6,1.2-7.3,1.8-10.6c1.1-5.9,6.2-10.2,12.2-10.3
		c13.2-0.2,40.1-2.4,82.2-13.5c16.7-4.5,34.1-5.8,51.3-3.8c22,2.6,46.2,10.9,48,34.4v29.3l-198.7-4
		C453.9,562.7,454.6,556.9,455.7,549.5z"/>
	<path class="st1" d="M291.5,724.6c-33.1-2.1-58.1-30.7-56-63.7c0.3-4.3,0.7-8.8,1.1-13.4c4.7-49.1,18.6-115.5,56-180h0.2l17,1.3
		l26.8,2c0,0-1.9,4.3-4.8,11.7C320,512,292.9,591.3,315.4,640c1.6,3.5,2.9,7,4.3,10.6c1.8,4.7,6.2,12.4,17.8,20.4
		c13.2,9,28.9,13.8,44.8,13.7h85.6c0,0,35.3-50-11.3-99.3c0,0-21.7-18.1-6.8-32c2.4-2.2,5.2-4,8.2-5.3l167.3-1.3
		c0,0,18.2-3.8,34.8,6.3l0,0c12.9,7.9,24.8,24.1,26.5,57c1.7,31.8,6,52.1,10.4,65.1c3.6,10.4,10.8,19.2,20.3,24.9
		c4.6,2.8,9,7.5,5.9,15c-2.6,6-8.5,9.8-15,9.7H295.4C294.1,724.7,292.8,724.7,291.5,724.6z"/>
	<path class="st3" d="M457,541.3h195.6v8.2H455.6C456.1,546.8,456.5,544,457,541.3z"/>
	<path class="st3" d="M457.9,548.1l167.3-1.3c0,0,18.2-3.8,34.8,6.3c-0.5,0.2-1,0.3-1.6,0.3H449.7
		C452.2,551.3,454.9,549.5,457.9,548.1z"/>
	<path class="st11" d="M735.6,547.3L735.6,547.3c0,2.3-1.8,4.1-4.1,4.1H448c-2.3,0-4.1-1.8-4.1-4.1l0,0c0-2.3,1.8-4.1,4.1-4.1h283.5
		C733.8,543.2,735.6,545,735.6,547.3z"/>
	<path class="st3" d="M292.6,467.5l17.2,1.3c0,0-58,149.2-57,182.2c0.3,10.9-6.7,6.8-16.2-3.5C241.2,598.3,255.1,531.9,292.6,467.5z
		"/>
	<path class="st3" d="M155.2,710.4c0.8-7.1,2.5-14,5-20.6c16.4-42.5,64.2-63.7,106.7-47.3c4.7,52.3,34.1,72.4,52.7,80v0.1l-0.3,4
		c-13.3-0.3-25.9-0.7-37.6-1.2c-6.2-0.3-12.3-0.6-18.1-1c-20.5-1.2-38.2-2.8-53.5-4.6c-6.4-0.8-12.4-1.5-18-2.4
		C177.2,715.1,165.1,712.7,155.2,710.4L155.2,710.4z"/>
	<path class="st1" d="M116.2,693.6c0,0,51.9-32.9,81-56.7s75.9-66.7,75.9-66.7c-32.6,144.3,62.1,154.6,62.1,154.6
		C147.2,722.6,116.2,693.6,116.2,693.6z"/>
	<path class="st12" d="M116.2,693.6c0,0,51.9-32.9,81-56.7s75.9-66.7,75.9-66.7c-32.6,144.3,62.1,154.6,62.1,154.6
		C147.2,722.6,116.2,693.6,116.2,693.6z"/>
	<circle class="st10" cx="588.2" cy="719.4" r="82.5"/>
	<circle class="st11" cx="588.2" cy="719.4" r="45"/>
	<circle class="st10" cx="588.2" cy="719.4" r="27"/>
	<path class="st3" d="M496,701.3h188.5c0.2-2.2,0.2-4.4,0.2-6.7c0-53.3-42.3-96.5-94.5-96.5s-94.5,43.2-94.5,96.5
		C495.7,696.9,495.8,699.1,496,701.3z"/>
	<path class="st1" d="M499.4,699.4H681c0.1-2.1,0.2-4.3,0.2-6.4c0-51.3-40.7-92.9-91-92.9s-91,41.6-91,92.9
		C499.2,695.1,499.3,697.3,499.4,699.4z"/>
	<path class="st12" d="M590.2,600.1c50.3,0,91,41.6,91,92.9c0,1.4,0,3-0.1,4.4c0,0.7-0.1,1.3-0.1,2H499.4c0-0.7-0.1-1.3-0.1-2
		c-0.1-1.4-0.1-3-0.1-4.4C499.2,641.7,540,600.1,590.2,600.1z"/>
	<path class="st3" d="M681.1,697.5c0,0.7-0.1,1.3-0.1,2H499.4c0-0.7-0.1-1.3-0.1-2H681.1z"/>
	<path class="st3" d="M721,712.1L721,712.1c0,5.9-4.8,10.7-10.7,10.7H487.1c-5.9,0-10.7-4.8-10.7-10.7l0,0c0-5.9,4.8-10.7,10.7-10.7
		h223.1C716.3,701.4,721,706.2,721,712.1z"/>
	<path class="st11" d="M721,710.1L721,710.1c0,5.9-4.8,10.7-10.7,10.7H487.1c-5.9,0-10.7-4.8-10.7-10.7l0,0
		c0-5.9,4.8-10.7,10.7-10.7h223.1C716.3,699.4,721,704.2,721,710.1z"/>
	
		<ellipse transform="matrix(0.412 -0.9112 0.9112 0.412 -329.6264 554.8932)" class="st3" cx="265.1" cy="532.8" rx="30.2" ry="12"/>
	
		<ellipse transform="matrix(0.412 -0.9112 0.9112 0.412 -329.3036 553.3982)" class="st11" cx="264.1" cy="531.8" rx="30.2" ry="12"/>
	<path class="st3" d="M309.7,468.8l26.8,2c0,0-1.9,4.3-4.8,11.7c-2.8,0.5-5.6,0.7-8.5,0.7h-30.5v-15.7L309.7,468.8z"/>
	<path class="st1" d="M292.7,390.2l30.5-2.8c26.8,0,48.5,20,48.5,44.8v4.1c0,24.8-21.7,44.8-48.5,44.8h-30.5V390.2z"/>
	<path class="st1" d="M375.7,413.9l-7.4,45.4c-20.3,2-33.1-19.1-33.1-19.1c-10.5-16.5,7.8-26.3,7.8-26.3
		C351.5,411.7,375.7,413.9,375.7,413.9z"/>
	<path class="st3" d="M375.7,413.9l-7.4,45.4c-20.3,2-33.1-19.1-33.1-19.1c-5.3-8.3-3.3-14.8-0.1-19.3c3.5-4.7,9-7.6,14.8-7.8
		C360.5,412.5,375.7,413.9,375.7,413.9z"/>
	<path class="st3" d="M293.7,390.2v90.9l0,0h-5.9c-10.3,0-18.6-8.3-18.6-18.6v-53.7c0-10.3,8.3-18.6,18.6-18.6L293.7,390.2
		L293.7,390.2z"/>
	<path class="st11" d="M292.7,390.2v90.9l0,0h-5.9c-10.3,0-18.6-8.3-18.6-18.6v-53.7c0-10.3,8.3-18.6,18.6-18.6L292.7,390.2
		L292.7,390.2z"/>
	<path class="st7" d="M472.8,461.3l-12.5,1.6l-0.8,0.1c0,0-58.9,14.6-107.8,32.9l-28.2,11.7c0,0-16,13,0,37s19.3,30,19.3,30l41,53.3
		c0,0,21.3,24.3,10.7,37c-3.8,4.5-7.9,8.7-12.3,12.6c-2.1,1.9-4.3,3.6-6.7,5.1c0,0,0,10.3,0.3,11.3s19.7,0,19.7,0l18.3-8l19.3-8.7
		l6.7-7.7c0,0-1.2-2.1-3-5.4c-5.4-9.9-16.4-30.7-17.7-38.2c-1.7-10-28.3-69.7-50.3-83v-0.1c-0.1-0.6-0.2-3.1,3.5-3.7
		c0.6-0.1,1.2-0.1,1.9-0.1c3.6,0,16.5,0.1,27.1,0.2c10.5,0.1,20.9-1.2,31.1-3.8c13.7-3.6,31.9-8.6,36.8-11.7c4.9-3.1,19-8.7,29-12.5
		c6.3-2.4,11-4.1,11-4.1L472.8,461.3z"/>
	<path class="st13" d="M378.9,678.6c-5.6,8-22.1,12-22.1,12s-13.3-2.3-8.5,10.9s54.9,1.8,54.9,1.8s34.5-10.1,40.3-12.7
		s0-14.9,0-14.9s-0.8,0.6-1.9-6c-1.1-6.6-5.9-3.3-5.9-3.3l-43.6,23c0,0-6.9,1.5-9.5,1.1s0.9-4.5,0.9-4.5
		C387.1,680.8,378.9,678.6,378.9,678.6z"/>
	<path class="st8" d="M323.6,544.6c16,24,19.3,30,19.3,30l41,53.3c0,0,21.3,24.3,10.7,37c-3.8,4.5-7.9,8.7-12.3,12.6
		c-0.7,0.6-1.3,1.1-1.9,1.6c-0.5-0.2-1-0.4-1.5-0.5c-5.6,8-22.1,12-22.1,12s-13.3-2.3-8.5,10.9s54.9,1.8,54.9,1.8
		s34.5-10.1,40.3-12.7s0-14.9,0-14.9s-0.8,0.6-1.9-6c-0.6-3.8-2.5-4.3-3.9-4.1l-0.7-1.3c-5.4-9.9-16.4-30.7-17.7-38.2
		c-1.7-10-28.3-69.7-50.3-83V543c-0.1-0.6-0.2-3.1,3.5-3.7c0.6-0.1,1.2-0.1,1.9-0.1c3.6,0,16.5,0.1,27.1,0.2
		c10.5,0.1,20.9-1.2,31.1-3.8c13.7-3.6,31.9-8.6,36.8-11.7c4.9-3.1,19-8.7,29-12.5c6.3-2.4,11-4.1,11-4.1l-36.4-45.6l-12.5,1.6
		l-0.8,0.1c0,0-58.9,14.6-107.8,32.9L323.6,508C323.6,507.6,307.6,520.6,323.6,544.6z"/>
	<path class="st7" d="M530.5,271.5c-3.7-4.2-6.9-8.9-9.4-13.9c-0.3-0.5-0.5-1-0.7-1.5c-2.9-6.5-3.9-13.2-0.8-19.2
		c4.8-9.4-2.8-7.3-11.9-2.6c-7.6,4.1-15,8.6-22.1,13.6c3,4.3,5.8,8.7,8.2,13.3c0.4,0.7,0.8,1.5,1.2,2.2c2.7,5.1,4.9,10.5,6.4,16.1
		c1.8,7.3,1.5,14.1-3.4,18.1c-7.8,6.5,2,5.3,13.6,2.6c11.1-2.6,23.7-6.7,23.7-6.7l5.3-6.7l0.8-1.1l1.5-1.9
		C538.4,280.1,534.2,276,530.5,271.5z"/>
	<polygon class="st13" points="489.2,451.9 477.1,467.6 466.2,467.6 472.7,442.4 479.5,436.2 	"/>
	<polygon class="st3" points="488.8,451.3 479.5,436.2 472.7,442.4 472.1,445 467.3,463.3 466.2,467.6 477.1,467.6 481.9,461.4 
		489.2,451.9 	"/>
	<polygon class="st3" points="488.8,451.3 479.5,436.2 472.7,442.4 472.1,445 467.3,463.3 466.2,467.6 477.1,467.6 481.9,461.4 
		489.2,451.9 	"/>
	<path class="st7" d="M475.1,464.2l-12.5,1.6l-0.8,0.1c0,0-56.3,14-96.3,38.3l-25.7,14.7c0,0-16,13,0,37s19.3,30,19.3,30l41,53.3
		c0,0,21.3,24.3,10.7,37c-3.8,4.5-7.9,8.7-12.3,12.6c-2.1,1.9-4.3,3.6-6.7,5.1c0,0,0,10.3,0.3,11.3s19.7,0,19.7,0l18.3-8l19.3-8.7
		l6.7-7.7c0,0-1.2-2.1-3-5.4c-5.4-9.9-16.4-30.7-17.7-38.2c-1.7-10-28.3-69.7-50.3-83v-0.1c-0.1-0.6-0.2-3.1,3.5-3.7
		c0.6-0.1,1.2-0.1,1.9-0.1c3.6,0,16.5,0.1,27.1,0.2c10.5,0.1,20.9-1.2,31.1-3.8c13.7-3.6,31.9-8.6,36.8-11.7c4.9-3.1,19-8.7,29-12.5
		c6.3-2.4,11-4.1,11-4.1L475.1,464.2z"/>
	<path class="st3" d="M453.1,675.5l-0.3,0.2l-43.6,23c0,0-6.9,1.5-9.5,1.1s0.9-4.5,0.9-4.5c2.3-3.2-0.1-5.3-2.2-6.4
		c-2.1,1.9-4.3,3.6-6.7,5.1c0,0,0,10.3,0.3,11.3s19.7,0,19.7,0l18.3-8l19.3-8.7l6.7-7.7C456.1,680.9,455,678.8,453.1,675.5z"/>
	<path class="st13" d="M395.2,689.8c-5.6,8-22.1,12-22.1,12s-13.3-2.2-8.5,10.9s54.9,1.8,54.9,1.8s34.5-10.1,40.3-12.7
		s0-14.9,0-14.9s-0.7,0.6-1.9-6s-5.9-3.3-5.9-3.3l-43.6,23c0,0-6.9,1.5-9.5,1.1s0.9-4.5,0.9-4.5
		C403.3,692.1,395.1,689.9,395.2,689.8z"/>
	<path class="st3" d="M519.5,236.9c10-19.7-34,11-34,11c3.5,5,6.6,10.1,9.4,15.5c1.9,0.3,3.9,0.5,5.8,0.5c7.5,0,16.4-6.3,22.1-10.3
		C519.5,246.7,516.2,243.4,519.5,236.9z"/>
	<path class="st7" d="M536.7,225.9c0-5.6-1.3-11.1-3.8-16.1c-8.9-17.8-30.5-25-48.3-16.1s-25,30.5-16.1,48.3s30.5,25,48.3,16.1
		c1.2-0.6,2.4-1.3,3.5-2C530.5,249.5,536.7,238.1,536.7,225.9L536.7,225.9z"/>
	<path class="st3" d="M475.1,464.2l-12.5,1.6c-0.9,0.6-1.8,0.9-2.8,1.1c-2.3-0.3,4.5,5.7,6.8,10.3s11.2,8,11.2,8s-2.7,7,2,8.3
		s10,9,9.7,11s11.7,9,15.3,10.3c1.7,0.6,5.7,4,9.7,7.5c6.3-2.4,11-4.1,11-4.1L475.1,464.2z"/>
	<path class="st13" d="M564.8,468.7c-0.7-2.6-1.8-5.2-3.3-7.5c-11-17.5-58.2-12.1-72.7-10c-2.7,0.4-4.3,0.7-4.3,0.7
		s-2.8,1.9-6.3,4.4c-3.4,2.3-7.6,5-10.9,7c-2.7,1.6-4.8,2.7-5.5,2.6c-2.3-0.3,4.5,5.7,6.8,10.3s11.2,8,11.2,8s-2.7,7,2,8.3
		s10,9,9.7,11s11.7,9,15.3,10.3s19,16,19,16s10.2,0.3,11-5.3s16-18.3,16-18.3S569.7,487.3,564.8,468.7z"/>
	<path class="st3" d="M558.3,474.7c-5.8,0-21.5-8.8-21.5-8.8S564.1,474.7,558.3,474.7z"/>
	<path class="st3" d="M549.7,486.6c0-6.2-23.3-14-23.3-14C551.8,470.1,549.7,492.7,549.7,486.6z"/>
	<path class="st3" d="M470.8,437.7l-0.3-0.5C470.6,437.4,470.7,437.6,470.8,437.7z"/>
	<path class="st3" d="M530.5,271.5c-1.8,3.5-8.4,8-14.8,10.7c-5,2.1-5,3.9-10.4,3.7c-4-0.1-3.6-6.9-3.6-6.9l-0.3,0.5
		c1.8,7.3,1.5,14.1-3.4,18.1c-7.8,6.5,2,5.3,13.6,2.6c11.1-2.6,23.7-6.7,23.7-6.7l5.3-6.7l0.8-1.1l1.5-1.9
		C538.4,280.1,534.2,276,530.5,271.5z"/>
	<path class="st3" d="M561.5,461.2c-11-17.5-58.2-12.1-72.7-10l-9.3-15l-6.8,6.2L472,445c2.2,3.3,5,8,6.1,11.4
		c0.4,0.9,0.5,1.9,0.3,2.9c-0.2,0.9,1.1,1.6,3.4,2.2c9.1,2.4,33.9,2.5,40-0.4c7.7-3.5,24,4.5,34.3,7.9c2.8,1,5.9,1,8.6-0.2
		C564,466.1,562.9,463.5,561.5,461.2z"/>
	<path class="st14" d="M568.8,424.2c-7-20,1.7-67.3,2.7-71s3.3-20.7-3.3-51.7S531,272,531,272c-0.5,3.6-8,9.1-15.3,12.1
		c-5,2.1-5,3.9-10.4,3.7c-4-0.1-3.6-6.9-3.6-6.9s-8.2,10-8.5,18.6c-0.2,9.5-17.1,30.8-21.3,38.5c-8,14.7,1.3,25.3,1.3,25.3
		s6.8,7.9,8.1,27.2c0.4,6.9,0.2,13.9-0.6,20.7c-0.4,3.4-0.8,6.3-1.3,8.9c-3.4,17.8-8.8,18.8-8.8,18.8s10,13.7,9,18
		s35.7,5.3,43.3,1.8s24,4.5,34.3,7.9s14.3-6,14.3-6S575.8,444.2,568.8,424.2z"/>
	<path class="st3" d="M540.9,364.1c-1.2-9-36,0-36,0s-14.9,27-16.5,32.7c-0.5,2.1-2,3.9-3.9,4.8c0.4,6.9,0.2,13.9-0.6,20.7
		c-0.3,3.4-0.8,6.3-1.3,8.9c5.8-0.7,11.6-1.1,17.5-1.2c8.8-6.3,16.1-14.4,21.7-23.7C530.3,391.5,542.1,373.1,540.9,364.1z"/>
	<path class="st7" d="M546.1,347.3c1.2,9-16.6,40.1-25.3,55.1c-5,8.4-11.5,15.8-19.2,21.9c-1.4,1.1-3.2,1.8-5.1,1.8
		c-5.6,0.1-18.6,0.8-26,3.6c-6.2,2.3-23.6,1.7-35.4,0.9c-7.2-0.5-14.2-1.6-21.2-3.5c-6-1.6-12.8-3.4-14.8-3.8
		c-3.7-0.8-14.9,1.2-14.9-4.1s-8.1-8.1-15.1,1.9c-5,7.1-9.6-4.3-11.9-11.5c-1.2-3.7-0.5-7.8,1.8-10.9c12.3-16.8,33.6,2.4,34.8,6.1
		c1.3,4,12.3,3.7,12.3,3.7s43.4-3.7,48.4-4.3s25.9-5.7,25.9-5.7c3.3-0.1,6.2-2.4,7.1-5.7c1.6-5.7,22.6-45.4,22.6-45.4
		S544.9,338.3,546.1,347.3z"/>
	<path class="st3" d="M548.2,292.2c2.4,7.3-0.7,37.7,0,54.7s-8,32-5.3,26s-19.7-20-19.7-20l-2.7,4.3l-31.3,3.7
		c0,0,6.3-23.3,11.5-36.7s16.5-32,16.5-32C524.5,286.6,545.8,284.9,548.2,292.2z"/>
	<path class="st14" d="M548.2,290.2c-0.1-0.3-0.2-0.6-0.4-0.9c-1.1-1.8-3.5-2.9-6.5-3.5c-1.1-0.2-2.3-0.3-3.4-0.4
		c-7.3-0.5-16.5,1.5-20.8,4.8c0,0-2.5,4.2-5.7,10c-4,7.1-7.6,14.5-10.7,22c-5.2,13.3-11.5,36.7-11.5,36.7l31.3-3.7l2.6-4.3
		c0,0,22.4,14,19.7,20s6-9,5.3-26C547.5,327.9,550.6,297.6,548.2,290.2z"/>
	<path class="st3" d="M544.9,410.2c4-0.5,17.3-18.8,17.3-18.8C561.9,406.5,544.9,410.2,544.9,410.2z"/>
	<path class="st3" d="M529.1,443c8-0.3,33-25.5,33-25.5S521.1,443.2,529.1,443z"/>
	<path class="st3" d="M545.1,446.7c1,0,17-18.8,17-18.8C562.4,440.2,544.1,446.7,545.1,446.7z"/>
	<path class="st3" d="M541.3,285.8l1.5-1.9c0,0-15-12.3-21.8-26.3c-0.3-0.5-0.5-1-0.7-1.5c4.2-2.7,7.8-6.3,10.5-10.5
		c10.9-16.6,6.3-38.9-10.3-49.9c-16.6-10.9-38.9-6.3-49.9,10.3c2,1.8,4.3,3.6,5.5,5.6c2.8,4.6,2.8,10.5,6.5,14.7
		c5.8,6.7,17.1,4.3,24.9,8c1.3,0.6,2.5,1.4,3.5,2.4c5.5,5.2,4.5,13.7,5.7,21.4c0.2,1.5,0.5,2.9,0.9,4.3c1.9,6.1,6.5,11,11.1,15.5
		c2.8,2.8,5.8,5.3,9.1,7.5c0.8,0.5,1.7,1,2.5,1.5c2.3,1.2,4.8,2.1,7.3,2.5C546.7,287.6,544.4,286.5,541.3,285.8z"/>
	<path class="st15" d="M478.2,210.6c-2.6-4.2-9.5-7-9.6-12.3c-0.1-8.9,21.3-22.9,28-27.2c13.9-9,31.2-14.3,47.3-10.3
		c11.1,2.7,20.8,9.5,31.4,13.7c10.4,4.2,21.7,5.9,31.7,11c8.9,4.5,16.3,11.4,21.5,19.8c2.9,4.8,5.3,10.3,10.1,13.1
		c3.4,2.1,7.6,2.5,11.6,2.4c11-0.2,22-3.5,33-2.7s23,7.5,24.3,18.5c0.8,7.2-3.1,13.9-6.7,20.2c-0.7,1-1.1,2.1-1.1,3.3
		c0.1,1.6,1.5,2.8,2.9,3.8c6.7,4.5,15,6.2,21.5,11.1s10,15.4,3.9,20.7c-3,2.6-7.6,3.3-9.3,6.9l8.1,4c-31.3,11.5-66.1,9-95.5-6.9
		c-5.2-2.9-11.6-6.1-16.6-2.9c-2.5,1.6-4.1,4.7-6.9,5.8c-1.8,0.6-3.7,0.7-5.6,0.3c-9.3-1.5-17.9-6-24.6-12.7c-2-2-3.8-4.3-6.4-5.2
		c-5.3-1.9-10.6,2.2-16,3.3c-9.2,1.9-17.7-4.8-24.4-11.3c-4.6-4.5-9.2-9.4-11.1-15.5c-2.7-8.6-0.1-19.5-6.6-25.7
		c-7.5-7.1-21.7-2.6-28.5-10.4C481,221.1,481.1,215.2,478.2,210.6z"/>
	<g class="st16">
		<path d="M707.5,239.8c-0.5,5.8-3.5,11.3-6.5,16.5c-0.2-0.4-0.3-0.8-0.4-1.2c0-1.2,0.4-2.4,1.1-3.3
			C703.9,247.9,706.2,244,707.5,239.8z"/>
		<path d="M731.1,287.9c0.2,2.9-0.9,5.8-3.1,7.8c-1.7,1.3-3.5,2.4-5.5,3.3l-2.9-1.4c1.7-3.5,6.4-4.3,9.3-6.9
			C729.9,289.9,730.6,288.9,731.1,287.9z"/>
		<path d="M721.2,303.7l5.6,2.8c-31.3,11.5-66.1,9-95.5-6.9c-5.2-2.9-11.6-6.1-16.6-2.9c-2.5,1.6-4.1,4.7-6.9,5.8
			c-1.8,0.6-3.7,0.7-5.6,0.3c-9.3-1.5-18-6-24.6-12.7c-1.9-2-3.8-4.3-6.4-5.2c-5.2-1.9-10.6,2.2-16,3.3c-9.2,1.9-17.7-4.8-24.4-11.3
			c-4.6-4.5-9.2-9.4-11.1-15.5c-2.7-8.6-0.1-19.5-6.6-25.7c-7.5-7.1-21.7-2.6-28.5-10.4c-3.7-4.2-3.6-10.1-6.5-14.7
			c-2.6-4.2-9.5-7-9.6-12.3c0-1.4,0.4-2.8,1.1-4c0.9,4.7,7.1,7.4,9.5,11.3c2.8,4.6,2.8,10.5,6.5,14.7c6.8,7.8,21,3.2,28.5,10.4
			c6.5,6.2,3.9,17.1,6.6,25.7c1.9,6.1,6.5,11,11.1,15.5c6.7,6.5,15.3,13.1,24.4,11.3c5.5-1.1,10.8-5.2,16-3.3
			c2.6,0.9,4.5,3.2,6.4,5.2c6.6,6.8,15.2,11.2,24.6,12.7c1.8,0.4,3.8,0.3,5.6-0.3c2.8-1.1,4.3-4.2,6.9-5.8c5-3.2,11.4,0.1,16.6,2.9
			C659.5,309.4,691.5,312.6,721.2,303.7z"/>
	</g>
	<path class="st3" d="M388.6,550.3c-5.2-1.2-11.9-2.5-11.9-1.9v1.6l8.4,4.1C385.1,553.5,384.9,551,388.6,550.3z"/>
	<ellipse class="st1" cx="377.8" cy="437.5" rx="20.3" ry="24.6"/>
	<polygon class="st17" points="683,405.4 712.5,435.7 605.4,437.5 572.8,405.4 	"/>
	<polygon class="st18" points="605.4,545.1 605.4,437.5 572.8,405.4 572.8,515.3 	"/>
	<polygon class="st17" points="605.4,437.5 605.4,545.1 712.5,545.1 712.5,435.7 	"/>
	<polygon class="st19" points="605.4,437.5 605.4,545.1 712.5,545.1 712.5,435.7 	"/>
	<polygon class="st11" points="622.1,521.3 704.1,506.3 693.7,454 614.1,467.6 	"/>
	<polygon class="st1" points="631.2,487.5 684.7,478.4 683.4,471.5 629.8,479.9 	"/>
	<polygon class="st1" points="644.6,502.6 676.3,498.1 675,490.4 644.6,494.8 	"/>
	<polygon class="st10" points="594.4,471.5 595.8,428.1 587.5,419.8 586,463.1 	"/>
	<polygon class="st10" points="700.6,423.5 598.7,426.4 595.8,428.1 587.5,419.8 590.9,417.9 693.8,416.5 	"/>
</g>
</svg>
