<svg xmlns="http://www.w3.org/2000/svg" width="890.022" height="716.716" viewBox="0 0 890.022 716.716">
    <defs>
        <style>
            .cls-1{fill:none}.cls-2{fill:#0050c8}.cls-3{clip-path:url(#clip-path)}.cls-15,.cls-4{fill:#3f71e2}.cls-5{fill:#f1f2ff}.cls-6{fill:#99c1f9}.cls-7{fill:#d8e7fc}.cls-8{fill:#fff}.cls-9{fill:#eef4fd}.cls-10{fill:#83b9fd}.cls-11{fill:#4b8dd9}.cls-12{fill:#d7e7fc}.cls-13{fill:#5ed291}.cls-14{fill:#e2e2e2}.cls-15{opacity:.44}.cls-16{fill:#ccd9f8}.cls-17{fill:#ebb28b}.cls-18{fill:#f4be46}.cls-19{fill:#fae2a3}.cls-20{fill:#f0bc99}.cls-21{fill:#21283a}.cls-22{fill:#f0af74}.cls-23{fill:#b2bad9}
        </style>
        <clipPath id="clip-path">
            <path id="Path_34" d="M206.586 541.637S60.8 480.484 64.186 357.093s140.137-162.15 233.93-85.972 184.218 53.64 232.807-10.735 80.994-205.471 217-151.126c101.378 40.5 169.482 149.261 191.46 247.272C954.5 423.894 932.6 495.058 879.772 539.5a156.223 156.223 0 0 1-5.286 4.272z" class="cls-1" data-name="Path 34" transform="translate(-64.128 -97.062)"/>
        </clipPath>
    </defs>
    <g id="group-4-02">
        <g id="Layer_1" data-name="Layer 1">
            <path id="Path_32" d="M206.586 541.123S60.8 479.97 64.186 356.578s140.137-142.689 233.93-66.439 184.218 53.567 232.844-10.862S611.917 54.4 747.926 108.745c101.378 40.5 169.482 149.261 191.46 247.272 15.116 67.362-6.789 138.526-59.614 182.969a156.223 156.223 0 0 1-5.286 4.272z" class="cls-2" data-name="Path 32" transform="translate(-64.128 75.239)"/>
            <g id="Group_99" class="cls-3" data-name="Group 99" transform="translate(0 171.786)">
                <path id="Path_33" d="M225.612 322.728s-31.953 265.647 167.581 120.387c163.762-119.137 395.845-105.7 400.7 181.376 0 0 83.945 3.621 76.5-141.585S795.845 5.94 602.032 43.2s-376.42 279.528-376.42 279.528z" class="cls-4" data-name="Path 33" transform="translate(65.202 -143.057)"/>
            </g>
            <path id="Path_35" d="M275.086 73.86l176.814.74a40.769 40.769 0 0 1 40.5 43.629l-28.7 407.324a40.153 40.153 0 0 1-40.041 37.347H243.966a40.135 40.135 0 0 1-40.026-43.122l30.323-408.173a40.75 40.75 0 0 1 40.823-37.745z" class="cls-5" data-name="Path 35" transform="translate(49.074 55.923)"/>
            <path id="Path_36" d="M275.086 73.86l176.814.74a40.769 40.769 0 0 1 40.5 43.629l-28.7 407.324a40.153 40.153 0 0 1-40.041 37.347H243.966a40.135 40.135 0 0 1-40.026-43.122l30.323-408.173a40.75 40.75 0 0 1 40.823-37.745z" class="cls-6" data-name="Path 36" transform="translate(49.074 55.923)"/>
            <path id="Path_37" d="M264.122 73.86l176.832.742a40.769 40.769 0 0 1 40.5 43.629l-28.715 407.322a40.153 40.153 0 0 1-40.044 37.347H232.966a40.135 40.135 0 0 1-40.026-43.122l30.36-408.173a40.786 40.786 0 0 1 40.822-37.745z" class="cls-7" data-name="Path 37" transform="translate(40.161 55.923)"/>
            <path id="Path_38" d="M236.061 94.46h202.195l-24.313 388.459-202.973 1.52z" class="cls-8" data-name="Path 38" transform="translate(54.861 72.616)"/>
            <path id="Path_39" d="M271.056 354.783a20.076 20.076 0 1 1 20.076-20.076 20.076 20.076 0 0 1-20.076 20.076zm0-37.329a17.252 17.252 0 1 0 17.252 17.252 17.252 17.252 0 0 0-17.252-17.252z" class="cls-6" data-name="Path 39" transform="translate(87.282 251.024)"/>
            <path id="Path_40" d="M307.637 89.6H273.73a3.44 3.44 0 0 1-3.44-3.44 3.44 3.44 0 0 1 3.44-3.44h33.907a3.44 3.44 0 0 1 3.44 3.44 3.44 3.44 0 0 1-3.44 3.44z" class="cls-6" data-name="Path 40" transform="translate(102.929 63.103)"/>
            <path id="Path_41" d="M399.644 176.381H235.521a7.477 7.477 0 0 1-7.477-7.839l2.209-44.516a7.459 7.459 0 0 1 7.459-7.1h164.141a7.459 7.459 0 0 1 7.459 7.839l-2.118 44.516a7.441 7.441 0 0 1-7.55 7.1z" class="cls-7" data-name="Path 41" transform="translate(68.689 90.824)"/>
            <path id="Path_42" d="M301.136 176.526h45.258a7.44 7.44 0 0 0 7.44-7.06l2.227-44.733a7.422 7.422 0 0 0-7.422-7.8h-45.258a7.422 7.422 0 0 0-7.422 7.06l-2.245 44.733a7.44 7.44 0 0 0 7.422 7.8z" class="cls-6" data-name="Path 42" transform="translate(121.903 90.824)"/>
            <path id="Path_43" d="M331.724 126.281h-93.358a1.122 1.122 0 1 1 0-2.227h93.358a1.122 1.122 0 1 1 0 2.227z" class="cls-9" data-name="Path 43" transform="translate(76.036 96.589)"/>
            <path id="Path_44" d="M331.323 134.507h-93.431a1.122 1.122 0 0 1-1.122-1.122 1.1 1.1 0 0 1 1.122-1.1h93.431a1.1 1.1 0 0 1 1.122 1.1 1.122 1.122 0 0 1-1.122 1.122z" class="cls-9" data-name="Path 44" transform="translate(75.767 103.262)"/>
            <path id="Path_45" d="M283.585 142.737h-46.091a1.113 1.113 0 0 1 0-2.227h46.127a1.1 1.1 0 0 1 1.122 1.1 1.122 1.122 0 0 1-1.159 1.122z" class="cls-9" data-name="Path 45" transform="translate(75.46 109.931)"/>
            <path id="Path_46" d="M396.4 222.871H232.351a7.477 7.477 0 0 1-7.477-7.839l2.209-44.516a7.459 7.459 0 0 1 7.459-7.1h164.141a7.459 7.459 0 0 1 7.459 7.839l-2.209 44.516a7.44 7.44 0 0 1-7.531 7.1z" class="cls-7" data-name="Path 46" transform="translate(66.121 128.496)"/>
            <path id="Path_47" d="M297.938 223.016H343.2a7.44 7.44 0 0 0 7.422-7.06l2.335-44.733a7.422 7.422 0 0 0-7.422-7.8h-45.262a7.422 7.422 0 0 0-7.422 7.06l-2.335 44.679a7.422 7.422 0 0 0 7.422 7.857z" class="cls-6" data-name="Path 47" transform="translate(119.308 128.496)"/>
            <path id="Path_48" d="M328.514 172.771h-93.358a1.122 1.122 0 1 1 0-2.227h93.358a1.122 1.122 0 1 1 0 2.227z" class="cls-9" data-name="Path 48" transform="translate(73.435 134.261)"/>
            <path id="Path_49" d="M328.041 181h-93.359a1.122 1.122 0 0 1-1.122-1.122 1.1 1.1 0 0 1 1.122-1.1h93.358a1.1 1.1 0 0 1 1.122 1.1 1.122 1.122 0 0 1-1.121 1.122z" class="cls-9" data-name="Path 49" transform="translate(73.166 140.934)"/>
            <path id="Path_50" d="M280.4 189.235h-46.128a1.122 1.122 0 0 1 0-2.245H280.4a1.122 1.122 0 0 1 0 2.245z" class="cls-9" data-name="Path 50" transform="translate(72.834 147.595)"/>
            <path id="Path_51" d="M336.442 143.153a18.592 18.592 0 1 1-4.5-13.546 18.592 18.592 0 0 1 4.5 13.546z" class="cls-8" data-name="Path 51" transform="translate(126.443 95.901)"/>
            <path id="Path_52" d="M311.207 143.66a1.611 1.611 0 0 1-1.05-.471l-6.246-6.137a1.665 1.665 0 0 1 2.335-2.372l5.177 5.087 11.912-9.595a1.668 1.668 0 1 1 2.082 2.607L312.366 143.3a1.647 1.647 0 0 1-1.159.362z" class="cls-9" data-name="Path 52" transform="translate(129.809 101.259)"/>
            <path id="Path_53" d="M334.032 189.643a18.61 18.61 0 1 1-4.5-13.541 18.592 18.592 0 0 1 4.5 13.541z" class="cls-8" data-name="Path 53" transform="translate(124.49 133.573)"/>
            <path id="Path_54" d="M308.814 190.184a1.648 1.648 0 0 1-1.068-.471l-6.227-6.137a1.665 1.665 0 0 1 0-2.353 1.684 1.684 0 0 1 2.372 0l5.177 5.105 11.912-9.595a1.668 1.668 0 0 1 2.082 2.607l-13.034 10.391a1.648 1.648 0 0 1-1.213.453z" class="cls-9" data-name="Path 54" transform="translate(127.84 138.988)"/>
            <path id="Path_55" d="M138.324 295.27s-2.372-3.711-8.527-28.495-22.249-48.444-47.286-39.646-17.886 38.017-5.431 85.194c8.816 33.69-27.155 59.741 20.257 86.008 28.766 15.858 78.713-5.431 68.9-53.4a64.973 64.973 0 0 0-12.165-26.811 178.416 178.416 0 0 1-15.75-22.846z" class="cls-10" data-name="Path 55" transform="translate(-62.83 178.601)"/>
            <path id="Path_56" d="M104.246 423.765a1.068 1.068 0 0 1-.833-1.231c11.405-72.974-19.751-171.021-20.076-171.981a1.086 1.086 0 0 1 2.064-.67c.326 1 31.626 99.568 20.131 173.012a1.086 1.086 0 0 1-1.231.905z" class="cls-11" data-name="Path 56" transform="translate(-48.593 197.991)"/>
            <path id="Path_57" d="M89.7 283.075h-.181a1.086 1.086 0 0 1-.6-1.412 144.062 144.062 0 0 0 7.44-24.2 1.05 1.05 0 0 1 1.249-.869 1.068 1.068 0 0 1 .869 1.249 147.057 147.057 0 0 1-7.549 24.584 1.086 1.086 0 0 1-1.231.652z" class="cls-11" data-name="Path 57" transform="translate(-44.098 203.975)"/>
            <path id="Path_58" d="M100.959 289.818a1.268 1.268 0 0 1-.416-.2c-5.576-4.309-19.5-12.328-19.642-12.4a1.1 1.1 0 0 1-.4-1.484 1.086 1.086 0 0 1 1.484-.4c.579.326 14.193 8.165 19.914 12.564a1.086 1.086 0 0 1 .181 1.521 1.068 1.068 0 0 1-1.122.4z" class="cls-11" data-name="Path 58" transform="translate(-50.972 219.065)"/>
            <path id="Path_59" d="M94.189 302.819h-.217a1.086 1.086 0 0 1-.525-1.448l7.133-15.261a1.086 1.086 0 1 1 1.955.905L95.4 302.294a1.068 1.068 0 0 1-1.211.525z" class="cls-11" data-name="Path 59" transform="translate(-40.455 227.298)"/>
            <path id="Path_60" d="M89.68 143.3l138.87.634a108.244 108.244 0 0 0-7.947-8.364c-5.431-4.707-11.749-13.034-31.825-6.9a46.65 46.65 0 0 0-4.58 1.81c-1.81.76-7.241.778-12.871-3.621-8.907-7.078-12.4-12.419-24.638-12.672-14.211-.2-16.456 17.524-27.5 22.068-7.042 2.9-25.6 5.757-29.454 7.042" class="cls-12" data-name="Path 60" transform="translate(-43.423 88.603)"/>
            <path id="Path_61" d="M316.23 28.2a97.33 97.33 0 0 1 7.006-7.241c4.8-4.128 10.3-11.423 27.9-6.046a39.931 39.931 0 0 1 4.019 1.539c1.539.652 6.354.67 11.278-3.24C374.251 7 377.292 2.352 388.027 2.171c12.455-.163 14.483 15.37 24.114 19.352 6.173 2.534 22.43 5.051 25.8 6.173z" class="cls-12" data-name="Path 61" transform="translate(140.156 -2.169)"/>
            <path id="Path_62" d="M435.89 83.14a171.747 171.747 0 0 1 12.31-12.817c8.436-7.241 18.1-20.058 49.005-10.608a72.1 72.1 0 0 1 7.042 2.679c2.715 1.159 11.152 1.195 19.8-5.666 13.722-10.862 19.1-19.135 38.017-19.407 21.887-.29 25.345 27.01 42.343 34 10.862 4.435 39.411 8.852 45.258 10.862z" class="cls-12" data-name="Path 62" transform="translate(237.119 26.313)"/>
            <path id="Path_63" d="M237.265 92.4a27.463 27.463 0 0 0-21.144-45.06h-59.614a27.517 27.517 0 0 0 0 55.034h59.614a27.155 27.155 0 0 0 12.274-2.951l13.777 7.567z" class="cls-4" data-name="Path 63" transform="translate(-11.569 34.433)"/>
            <path id="Path_64" d="M168.71 65.222a5.992 5.992 0 1 0 5.956-5.992 5.992 5.992 0 0 0-5.956 5.992z" class="cls-8" data-name="Path 64" transform="translate(20.617 44.068)"/>
            <path id="Path_65" d="M157.35 65.222a5.992 5.992 0 1 0 5.992-5.992 5.992 5.992 0 0 0-5.992 5.992z" class="cls-8" data-name="Path 65" transform="translate(11.412 44.068)"/>
            <path id="Path_66" d="M146 65.222a5.992 5.992 0 1 0 5.992-5.992A5.992 5.992 0 0 0 146 65.222z" class="cls-8" data-name="Path 66" transform="translate(2.215 44.068)"/>
            <path id="Path_67" d="M489.367 455.07c-1.9.109-49.675-5.63-51.848-50.073s28.277-55.432 20.258-105-28.965-63.687 18.1-99.8c0 0 21-14.483 22-34.921 1.159-24.421 43.3-52.753 71.58-36.46s21.615 41.438-2.589 82.152-.869 47.829 3.766 60.99 15.442 26.974-9.251 58.437 4.725 69.86-16.293 99.984c-.037.089-18.484 22.392-55.723 24.691z" class="cls-13" data-name="Path 67" transform="translate(238.349 96.554)"/>
            <path id="Path_68" d="M474.554 491.037a1.992 1.992 0 0 0 1.484-2.317c-25.67-135.647 26.666-320.626 27.155-322.491a2.014 2.014 0 1 0-3.874-1.1c-.543 1.81-53.133 187.767-27.282 324.337a2.028 2.028 0 0 0 2.353 1.611z" class="cls-14" data-name="Path 68" transform="translate(260.621 128.692)"/>
            <path id="Path_69" d="M484.111 227.145a1.16 1.16 0 0 0 .326-.109 2.028 2.028 0 0 0 1.032-2.661c-.109-.253-10.862-24.222-15.152-44.679a2.017 2.017 0 1 0-3.946.833c4.453 20.891 15.3 45.258 15.406 45.493a2.009 2.009 0 0 0 2.335 1.122z" class="cls-14" data-name="Path 69" transform="translate(261.781 140.388)"/>
            <path id="Path_70" d="M473.469 240.6a1.993 1.993 0 0 0 .779-.4c10.156-8.4 35.663-24.186 35.917-24.349a2.012 2.012 0 1 0-2.118-3.421c-1.05.652-26 16.094-36.369 24.657a2.028 2.028 0 0 0-.271 2.842 2.064 2.064 0 0 0 2.064.67z" class="cls-14" data-name="Path 70" transform="translate(265.526 167.969)"/>
            <path id="Path_71" d="M476.722 264.337a1.666 1.666 0 0 0 .416-.163 2.009 2.009 0 0 0 .905-2.7l-14.3-28.1a2.028 2.028 0 1 0-3.621 1.81l14.229 28.078a1.991 1.991 0 0 0 2.371 1.075z" class="cls-14" data-name="Path 71" transform="translate(256.534 184.189)"/>
            <path id="Path_72" d="M539.121 382.349c-1.81 1.376-17.777-27.589-21.507-64.429 0 0-1.81-18.1 15.388-8.889 0 0-17.777-79.22 29.6-73.3 8.164 1.014 12.817 2.842 17.524 8 6.354 6.97 9.866 18.248 2.353 34.4-15.026 32.4-28.223 44.987-21.724 62.148s4.236 22.121-21.634 42.07z" class="cls-10" data-name="Path 72" transform="translate(303.297 186.835)"/>
            <path id="Path_73" d="M534.6 412.92a1.81 1.81 0 0 0 1.358-2.046c-10.862-53.242 4.8-143.015 6.789-146.871a1.7 1.7 0 0 0-.416-2.39 1.81 1.81 0 0 0-2.462.453c-3.24 4.508-17.9 97.757-7.241 149.5a1.7 1.7 0 0 0 1.973 1.358z" class="cls-11" data-name="Path 73" transform="translate(312.402 207.822)"/>
            <path id="Path_74" d="M377.186 252.161l-6.246 24.82L445.923 281l-2.534-31.119z" class="cls-4" data-name="Path 74" transform="translate(184.488 198.556)"/>
            <path id="Path_75" d="M415.209 260.07l-21.814 73.68.435 111.335-26.63.543-5.16-113.562 17.832-70.041z" class="cls-4" data-name="Path 75" transform="translate(177.276 206.813)"/>
            <path id="Path_76" d="M397.429 266.6l-17.289-1.65 12.69 17.162z" class="cls-15" data-name="Path 76" transform="translate(191.943 210.767)"/>
            <path id="Path_77" d="M427.7 267.635l5.033 69.136L453.8 450.894l-26.34 5.413-25.45-116.422-8.78-79.745z" class="cls-4" data-name="Path 77" transform="translate(202.55 206.87)"/>
            <path id="Path_78" d="M380.878 362.439l14.483-.109.38 20.783-41.221.272a7.332 7.332 0 0 1 5.666-6.608l20.42-5z" class="cls-16" data-name="Path 78" transform="translate(171.183 289.676)"/>
            <path id="Rectangle_28" d="M0 0h41.221v3.204H0z" class="cls-6" data-name="Rectangle 28" transform="rotate(-.38 101740.562 -78933.716)"/>
            <path id="Path_79" d="M377.516 368.532a3.168 3.168 0 1 1-3.186-3.132 3.168 3.168 0 0 1 3.186 3.132z" class="cls-8" data-name="Path 79" transform="translate(184.683 292.164)"/>
            <path id="Path_80" d="M426.882 367.769l14.374-1.919 2.969 20.565-40.859 5.431a7.241 7.241 0 0 1 4.8-7.241l19.624-7.495z" class="cls-16" data-name="Path 80" transform="translate(210.753 292.529)"/>
            <path id="Rectangle_29" d="M0 0h41.221v3.204H0z" class="cls-6" data-name="Rectangle 29" transform="rotate(-7.55 5492.855 -4311.54)"/>
            <path id="Path_81" d="M425.325 372.159a3.186 3.186 0 1 1-1.239-2.124 3.168 3.168 0 0 1 1.239 2.124z" class="cls-8" data-name="Path 81" transform="translate(223.443 295.399)"/>
            <path id="Path_82" d="M388.353 258.183a7.75 7.75 0 0 1-.887 0l-67.706-10.065L323.055 226l60.664 9.052a471.149 471.149 0 0 1 30.5-39.827c-.145.272.67.978 0 0l21.326 2.209c.959 5.431-3.729 5.431-37.093 55.83a11.17 11.17 0 0 1-10.099 4.919z" class="cls-16" data-name="Path 82" transform="translate(143.016 154.264)"/>
            <path id="Path_83" d="M413.133 192l2.19.362a24.421 24.421 0 0 1 19.8 18.339l15.5 88.271c-32.948 17.958-74.64.181-74.64.181l-8-82.315a21.47 21.47 0 0 1 11.8-21.9z" class="cls-16" data-name="Path 83" transform="translate(181.959 151.654)"/>
            <path id="Path_84" d="M397.046 215.885l-18.556-1.539 3.023-42.126 18.556 1.557z" class="cls-17" data-name="Path 84" transform="translate(190.606 135.626)"/>
            <path id="Path_85" d="M376.284 194.58l28.35-2.48s-.217 16.564-17.307 16.293c-15.659-.181-11.043-13.813-11.043-13.813z" class="cls-17" data-name="Path 85" transform="translate(188.304 151.736)"/>
            <path id="Path_86" d="M331.046 224.543a12.021 12.021 0 1 1-9.848-13.867 12.021 12.021 0 0 1 9.848 13.867z" class="cls-8" data-name="Path 86" transform="translate(132.816 166.65)"/>
            <path id="Path_87" d="M331.734 228.469l-12.328-2.1a5.956 5.956 0 0 1-4.87-6.843 5.956 5.956 0 0 1 6.843-4.87l12.346 2.1a5.92 5.92 0 0 1 4.852 6.843 5.956 5.956 0 0 1-6.843 4.87z" class="cls-8" data-name="Path 87" transform="translate(138.718 169.948)"/>
            <ellipse id="Ellipse_4" cx="34.577" cy="34.577" class="cls-18" data-name="Ellipse 4" rx="34.577" ry="34.577" transform="rotate(-64.02 540.824 -126.483)"/>
            <path id="Path_88" d="M323.491 241.538a3.059 3.059 0 0 1-1.955-.887l-11.622-11.423a3.1 3.1 0 1 1 4.363-4.417l9.631 9.468 22.158-17.832a3.1 3.1 0 0 1 3.892 4.834l-24.313 19.57a3.059 3.059 0 0 1-2.154.688z" class="cls-19" data-name="Path 88" transform="translate(134.289 170.909)"/>
            <path id="Path_89" d="M386.178 211.5a22.864 22.864 0 0 1-21.253-24.385l1.991-28.368 45.656 3.15-1.972 28.371a22.846 22.846 0 0 1-24.422 21.232z" class="cls-20" data-name="Path 89" transform="translate(179.569 124.711)"/>
            <path id="Path_90" d="M412.578 191.415l-6.517-.326a2.824 2.824 0 0 1-2.607-3.494c1.141-4.653 2.625-12.672-.38-13.813-4.272-1.647-27.9 3.041-35.464-3.476-10.681-9.16-1.81-22.285 8.291-22.267s7.929 11.6 19.7 12.075 29.852-2.987 20.312 27.68z" class="cls-21" data-name="Path 90" transform="translate(177.861 116.033)"/>
            <path id="Path_91" d="M401.147 176.438a7.241 7.241 0 1 1-6.662-7.658 7.241 7.241 0 0 1 6.662 7.658z" class="cls-20" data-name="Path 91" transform="translate(197.241 132.821)"/>
            <path id="Path_92" d="M356.175 240.351a12.039 12.039 0 1 1-11.17-12.817 12.039 12.039 0 0 1 11.17 12.817z" class="cls-22" data-name="Path 92" transform="translate(153.035 180.424)"/>
            <path id="Path_93" d="M357.491 243.872L345.017 243a5.956 5.956 0 0 1-5.521-6.336 5.974 5.974 0 0 1 6.336-5.431l12.491.869a5.956 5.956 0 0 1 5.431 6.336 5.956 5.956 0 0 1-6.264 5.431z" class="cls-22" data-name="Path 93" transform="translate(158.998 183.438)"/>
            <path id="Path_94" d="M345.67 276.151v-22.376h61.66l21.2-50.291a11.169 11.169 0 0 1 14.808-5.522 11.17 11.17 0 0 1 5.54 14.809l-24.186 56.844a11.206 11.206 0 0 1-10.192 6.553z" class="cls-16" data-name="Path 94" transform="translate(164.011 155.666)"/>
            <path id="Rectangle_30" d="M0 0h33.382v11.64H0z" class="cls-2" data-name="Rectangle 30" transform="translate(541.036 640.819)"/>
            <path id="Rectangle_31" d="M0 0h33.382v11.64H0z" class="cls-2" data-name="Rectangle 31" transform="rotate(-11.07 3682.573 -2897.846)"/>
            <path id="Path_95" d="M371.3 267.116h19.914a15.279 15.279 0 0 0 12.889-8.834l22.14-50.092c-8.581 29.219-19.914 58.98-19.914 58.98a9.305 9.305 0 0 1-9.052 6.119l-25.489-1.014z" class="cls-16" data-name="Path 95" transform="translate(184.78 164.774)"/>
            <rect id="Rectangle_32" width="163.092" height="54.147" class="cls-6" data-name="Rectangle 32" rx="1.93" transform="rotate(-7.55 3441.644 -1842.13)"/>
            <rect id="Rectangle_33" width="163.092" height="54.147" class="cls-7" data-name="Rectangle 33" rx="1.93" transform="rotate(-7.55 3302.062 -1771.327)"/>
            <path id="Path_96" d="M217.768 245.772a1.032 1.032 0 0 1-1.014-.887 1.014 1.014 0 0 1 .869-1.141l84.289-11.188a.978.978 0 0 1 1.141.887 1.014 1.014 0 0 1-.869 1.141l-84.289 11.17z" class="cls-9" data-name="Path 96" transform="translate(59.541 184.507)"/>
            <path id="Path_97" d="M218.719 253.168a1.014 1.014 0 0 1-.127-2.009l84.27-11.152a.977.977 0 0 1 1.141.869 1 1 0 0 1-.869 1.14l-84.27 11.184z" class="cls-9" data-name="Path 97" transform="translate(60.364 190.543)"/>
            <path id="Path_98" d="M219.738 258.11a1.032 1.032 0 0 1-1.014-.887 1.014 1.014 0 0 1 .869-1.14l41.637-5.576a.978.978 0 0 1 1.141.869 1.014 1.014 0 0 1-.869 1.141l-41.637 5.576z" class="cls-9" data-name="Path 98" transform="translate(61.137 199.052)"/>
            <path id="Path_99" d="M192.542 355.446l-13.215-1-1.937 21.724 37.618 2.969.217-2.915a6.752 6.752 0 0 0-4.761-6.39l-18.284-5.829z" class="cls-16" data-name="Path 99" transform="translate(27.651 283.291)"/>
            <path id="Path_100" d="M101.587 356.529l-1.3-13.179-21.727 1.81 3.621 37.546 2.915-.29a6.7 6.7 0 0 0 5.431-5.793l2.573-19.008z" class="cls-16" data-name="Path 100" transform="translate(-52.433 274.297)"/>
            <path id="Path_101" d="M148.03 301.6l23.932 77.174-83.492 4.975 2.48 19.914 101.812-3.422c9.052-.29 15.895-7.241 14.048-17.723l-5.7-57.333 53.821-.833-9.305 85.085 23.19.815 22.738-95.639a18.954 18.954 0 0 0-17.976-23.335l-54.762-1.358z" class="cls-4" data-name="Path 101" transform="translate(-44.403 231.001)"/>
            <path id="Path_102" d="M140.35 266.144l20.583 4.363 8.726-43.665-20.384-4.272z" class="cls-17" data-name="Path 102" transform="translate(-2.364 176.426)"/>
            <path id="Path_103" d="M156.836 260.412a21.289 21.289 0 0 0 25.218-16.492l5.431-25.92-41.637-8.726-5.431 25.924a21.289 21.289 0 0 0 16.42 25.218z" class="cls-20" data-name="Path 103" transform="translate(-2.684 165.649)"/>
            <path id="Path_104" d="M176.546 227.784l-3.983 19.063a13.722 13.722 0 0 1-15.913 11.061l-3.765-.8c-12.564-2.625-20.493-15.551-17.7-28.857l3.615-17.231 39.193 8.219z" class="cls-21" data-name="Path 104" transform="translate(-7.005 167.067)"/>
            <path id="Path_105" d="M157 226.635a86.436 86.436 0 0 0 15.949 2.679c8.056.109 13.034-9.052 8.02-15.406a9.9 9.9 0 0 0-.724-.833c-6.119-6.68-16.836-3.349-16.782-2.679S157 226.635 157 226.635z" class="cls-21" data-name="Path 105" transform="translate(11.128 165.409)"/>
            <path id="Path_106" d="M185.935 218.616s-11.984-17.6-32.712-12.419c0 0-7.947-.416-16.293 9.5L171.8 232.3z" class="cls-21" data-name="Path 106" transform="translate(-5.135 162.386)"/>
            <path id="Path_107" d="M153.118 227.164a6.227 6.227 0 1 0 2.689-3.951 6.228 6.228 0 0 0-2.689 3.951z" class="cls-20" data-name="Path 107" transform="translate(7.877 176.123)"/>
            <path id="Path_108" d="M165.849 215.214a20.131 20.131 0 1 1-2.858-15.157 20.149 20.149 0 0 1 2.858 15.157z" class="cls-21" data-name="Path 108" transform="translate(-14.014 150.798)"/>
            <path id="Path_109" d="M195.725 328.835c-7.676-12.491-4.019-41.348-.869-58.654a21.09 21.09 0 0 0-9.649-21.724l-23.842-7.06c-5.9-2.046-13.632 4.815-17.85 9.45-37.6 41.312-23.118 93.938-23.118 93.938a116.15 116.15 0 0 0 37.2 1.919h.8a65.171 65.171 0 0 0 37.328-17.869z" class="cls-16" data-name="Path 109" transform="translate(-20.754 191.38)"/>
            <path id="Path_110" d="M211.353 261.349a12.889 12.889 0 1 0 2.9-17.995 12.889 12.889 0 0 0-2.9 17.995z" class="cls-20" data-name="Path 110" transform="translate(53.192 191.287)"/>
            <path id="Path_111" d="M213.173 266.432l10.862-7.857a6.372 6.372 0 0 0 1.412-8.889 6.39 6.39 0 0 0-8.889-1.43l-10.858 7.857a6.391 6.391 0 0 0-1.43 8.889 6.391 6.391 0 0 0 8.907 1.43z" class="cls-20" data-name="Path 111" transform="translate(48.458 196.27)"/>
            <path id="Path_112" d="M268.285 268.23l-12.672-20.33-56.029 35.012-35.138-35.79a11.984 11.984 0 0 0-16.6 3.367 12 12 0 0 0 3.349 16.619l41.637 40.044a12.039 12.039 0 0 0 12.98.181z" class="cls-16" data-name="Path 112" transform="translate(2.09 194.706)"/>
            <path id="Path_113" d="M150.69 315.042l22.575-12.672-1.213 5.865 32.459 5.974z" class="cls-15" data-name="Path 113" transform="translate(6.015 241.09)"/>
            <path id="Path_114" d="M431.754 135l-1.81-5.431-1.811 5.431a18.628 18.628 0 0 1-10.373 10.554 18.664 18.664 0 0 1 10.373 10.572l1.81 5.34 1.81-5.34a18.664 18.664 0 0 1 10.373-10.572A18.628 18.628 0 0 1 431.754 135z" class="cls-8" data-name="Path 114" transform="translate(222.427 101.066)"/>
            <path id="Path_115" d="M120.275 219.951l-1.231-3.621-1.231 3.621a12.4 12.4 0 0 1-6.843 6.97 12.4 12.4 0 0 1 6.843 6.97l1.231 3.53 1.231-3.53a12.346 12.346 0 0 1 6.843-6.97 12.346 12.346 0 0 1-6.843-6.97z" class="cls-8" data-name="Path 115" transform="translate(-26.171 171.37)"/>
            <path id="Path_116" d="M217.56 402.6l4.562 8.8 52.336 1.34 10.663-29.182-4.417-8.49z" class="cls-23" data-name="Path 116" transform="translate(60.201 300)"/>
            <path id="Path_117" d="M227.3 413.281l45.711 1.81c4 .145 7.35-1.611 7.622-4.019l3.023-27.155c.29-2.571-3.06-4.87-7.35-5.033l-45.711-1.81c-4-.163-7.35 1.611-7.621 4.019l-3.023 27.155c-.327 2.571 3.022 4.906 7.349 5.033z" class="cls-6" data-name="Path 117" transform="translate(62.12 301.616)"/>
            <path id="Path_118" d="M224.845 408.578l45.711 1.81c4 .163 7.35-1.611 7.621-4.019l3.023-27.155c.29-2.589-3.059-4.888-7.35-5.051l-45.729-1.81c-3.983-.145-7.241 1.629-7.6 4.019l-3.041 27.155c-.275 2.589 3.074 4.888 7.365 5.051z" class="cls-7" data-name="Path 118" transform="translate(60.121 297.792)"/>
        </g>
    </g>
</svg>
