<?xml version="1.0" encoding="utf-8"?>
<!-- Generator: Adobe Illustrator 23.0.1, SVG Export Plug-In . SVG Version: 6.00 Build 0)  -->
<svg version="1.1" id="Layer_1" xmlns="http://www.w3.org/2000/svg" xmlns:xlink="http://www.w3.org/1999/xlink" x="0px" y="0px"
	 viewBox="0 0 1920 1080" style="enable-background:new 0 0 1920 1080;" xml:space="preserve">
<style type="text/css">
	.st0{opacity:0.25;fill:#38D39F;enable-background:new    ;}
	.st1{opacity:0.1;fill:#38D39F;enable-background:new    ;}
	.st2{fill:none;stroke:#535461;stroke-width:1.662;stroke-miterlimit:10;}
	.st3{fill:#38D39F;}
	.st4{opacity:0.25;enable-background:new    ;}
	.st5{fill:#464353;}
	.st6{fill:#514E7F;}
	.st7{opacity:0.1;enable-background:new    ;}
	.st8{opacity:0.5;fill:#38D39F;enable-background:new    ;}
	.st9{fill:url(#SVGID_1_);}
	.st10{fill:#3F3D56;}
	.st11{fill:#A1616A;}
	.st12{opacity:5.000000e-02;enable-background:new    ;}
	.st13{opacity:0.1;}
	.st14{fill:#FE8054;}
	.st15{fill:#A981E4;}
	.st16{fill:#FFDD6E;}
	.st17{opacity:0.57;fill:#23B195;}
	.st18{opacity:0.67;fill:#23B195;}
	.st19{fill:#23B195;}
	.st20{display:none;fill:none;stroke:#23B195;stroke-width:0.98;stroke-miterlimit:10;}
	.st21{display:none;}
	.st22{display:inline;fill:none;stroke:#4A4A4A;stroke-width:2;stroke-miterlimit:10;}
</style>
<g>
	<path class="st0" d="M1731.4,745.4c-0.9,0.7-1.8,1.3-2.8,1.9c-3.4,2.3-7,4.4-10.7,6.2c-19.5,9.7-43.5,14.5-66.9,17.7
		c-52.5,7.2-106.1,8.7-159.4,10c-144.2,3.7-288.7,7.5-432.5-1.1c-56.8-3.4-114.9-9.1-166.4-26.6c-7.4-2.5-14.6-5.3-21.7-8.3
		c-14.3-6.1-28.1-13.5-39.6-22.4c-10.8-8.3-19.5-17.9-24.7-28.7c-10.9-22.6-5.1-48,7.3-70.2c5.2-9,11-17.6,17.5-25.8
		c9.6-12.5,20.1-24.6,29.8-37c34.3-44.4,56.7-100.5,25-145.9c-9.1-13.1-22.3-24.5-29.7-38.2c-9.5-17.5-8.7-36.8-5.7-55.7
		c0.4-2.4,0.8-4.7,1.2-7.1c5.2-27.9,14.8-58,44.7-75.4c31-18.1,75-17.2,113.5-10.7c59.8,10.1,115,31.1,170.8,50.1
		s114.1,36.3,175.4,38.2c54.1,1.7,117.2-10.7,153.2-42.8c34.9-31.1,100.5-33.5,147.7-14.7c32.4,12.9,56.6,36.2,66.8,62.3
		c2.1,5.2,3.6,10.7,4.4,16.2c0.8,5.1,1.1,10.2,0.8,15.3c-0.1,2.5-0.4,5-0.8,7.5c-7.9,51.6-64.7,92.3-99.3,138.5
		c-16.9,22.5-28.8,49.6-17.2,73.9c17.7,37,79.3,50.2,116.5,77.7c7,5,13.1,10.9,18.3,17.7C1764.9,692.8,1758.3,725.9,1731.4,745.4z"
		/>
	<ellipse class="st1" cx="1247.8" cy="764.7" rx="224.1" ry="7.6"/>
	<g>
		<path class="st2" d="M1425.8,759.7c0,0,48.2-61.1,44.5-121.7c-1.6-25.5,4.7-50.8,18.7-72.2c6.7-10.1,14.3-19.6,22.7-28.3"/>
		<path class="st3" d="M1509.5,499.2c-3.4,8.5,2.1,39.3,2.1,39.3s25.3-18.4,28.7-26.9c3.4-8.5-0.7-18.1-9.2-21.5
			C1522.6,486.6,1512.9,490.7,1509.5,499.2L1509.5,499.2L1509.5,499.2z"/>
		<path class="st3" d="M1465.3,536c1.8,9,23.1,31.8,23.1,31.8s11.2-29.2,9.4-38.2c-1.9-9-10.6-14.7-19.6-12.9
			C1469.4,518.6,1463.6,527.1,1465.3,536L1465.3,536z"/>
		<path class="st3" d="M1434.1,616.8c6,6.9,36,15.8,36,15.8s-5.1-30.8-11.1-37.7c-6-6.9-16.5-7.5-23.4-1.5
			C1428.7,599.4,1428.1,609.9,1434.1,616.8L1434.1,616.8L1434.1,616.8z"/>
		<path class="st3" d="M1424.3,683.2c4.8,7.8,32.8,21.7,32.8,21.7s0.2-31.3-4.6-39.1c-4.7-7.8-14.9-10.3-22.7-5.6
			c-7.8,4.7-10.3,14.9-5.6,22.7C1424.2,683,1424.2,683.1,1424.3,683.2z"/>
		<path class="st3" d="M1520,582.4c-8.5,3.5-39.3-1.8-39.3-1.8s18.3-25.4,26.7-28.8c8.5-3.3,18.1,0.9,21.5,9.4
			C1532.2,569.5,1528.2,578.9,1520,582.4z"/>
		<path class="st3" d="M1507.5,660c-9.1,0.8-36.9-13.5-36.9-13.5s25-18.7,34.1-19.5c9.1-0.9,17.2,5.7,18.2,14.8
			c0.9,9.1-5.7,17.2-14.8,18.2C1507.9,659.9,1507.7,659.9,1507.5,660z"/>
		<path class="st3" d="M1485,733.7c-8.9,2.3-38.7-7-38.7-7s21.5-22.7,30.3-25c8.9-2.1,17.8,3.5,19.9,12.4
			C1498.5,722.6,1493.4,731.2,1485,733.7L1485,733.7z"/>
		<path class="st4" d="M1509.5,499.2c-3.4,8.5,2.1,39.3,2.1,39.3s25.3-18.4,28.7-26.9c3.4-8.5-0.7-18.1-9.2-21.5
			C1522.6,486.6,1512.9,490.7,1509.5,499.2L1509.5,499.2L1509.5,499.2z"/>
		<path class="st4" d="M1465.3,536c1.8,9,23.1,31.8,23.1,31.8s11.2-29.2,9.4-38.2c-1.9-9-10.6-14.7-19.6-12.9
			C1469.4,518.6,1463.6,527.1,1465.3,536L1465.3,536z"/>
		<path class="st4" d="M1434.1,616.8c6,6.9,36,15.8,36,15.8s-5.1-30.8-11.1-37.7c-6-6.9-16.5-7.5-23.4-1.5
			C1428.7,599.4,1428.1,609.9,1434.1,616.8L1434.1,616.8L1434.1,616.8z"/>
		<path class="st4" d="M1424.3,683.2c4.8,7.8,32.8,21.7,32.8,21.7s0.2-31.3-4.6-39.1c-4.7-7.8-14.9-10.3-22.7-5.6
			c-7.8,4.7-10.3,14.9-5.6,22.7C1424.2,683,1424.2,683.1,1424.3,683.2z"/>
		<path class="st4" d="M1520,582.4c-8.5,3.5-39.3-1.8-39.3-1.8s18.3-25.4,26.7-28.8c8.5-3.3,18.1,0.9,21.5,9.4
			C1532.2,569.5,1528.2,578.9,1520,582.4z"/>
		<path class="st4" d="M1507.5,660c-9.1,0.8-36.9-13.5-36.9-13.5s25-18.7,34.1-19.5c9.1-0.9,17.2,5.7,18.2,14.8
			c0.9,9.1-5.7,17.2-14.8,18.2C1507.9,659.9,1507.7,659.9,1507.5,660z"/>
		<path class="st4" d="M1485,733.7c-8.9,2.3-38.7-7-38.7-7s21.5-22.7,30.3-25c8.9-2.1,17.8,3.5,19.9,12.4
			C1498.5,722.6,1493.4,731.2,1485,733.7L1485,733.7z"/>
		<path class="st2" d="M1426.2,757.1c0,0,68.8-36.3,90-93.3c8.9-23.9,24.9-44.6,46.4-58.4c10.2-6.5,21-12.1,32.2-16.7"/>
		<path class="st3" d="M1608.3,552.9c-6.5,6.4-14,36.7-14,36.7s30.6-6.6,37.1-13c6.5-6.5,6.5-17,0-23.4
			C1625.1,546.9,1614.8,546.7,1608.3,552.9z"/>
		<path class="st3" d="M1552.9,568.6c-2,8.9,8.2,38.5,8.2,38.5s22-22.2,24.1-31.1c2.2-8.9-3.2-17.9-12.1-20.1
			c-8.9-2.2-17.9,3.2-20.1,12.1C1553,568.2,1553,568.4,1552.9,568.6L1552.9,568.6z"/>
		<path class="st3" d="M1491.7,629.8c2.7,8.7,26.5,29.1,26.5,29.1s7.8-30.3,5.1-39c-2.6-8.8-11.7-13.8-20.5-11.3
			c-8.8,2.6-13.8,11.7-11.3,20.5C1491.6,629.4,1491.7,629.6,1491.7,629.8L1491.7,629.8z"/>
		<path class="st3" d="M1455.8,686.6c1.2,9.1,21.2,33.1,21.2,33.1s12.8-28.5,11.6-37.6c-1.2-9.1-9.6-15.4-18.6-14.2
			S1454.6,677.5,1455.8,686.6L1455.8,686.6z"/>
		<path class="st3" d="M1584.1,633.2c-9.1-0.3-35.2-17.6-35.2-17.6s27-15.8,36.1-15.5c9.1,0.4,16.2,8.1,15.8,17.2
			C1600.5,626.3,1593.1,633.3,1584.1,633.2z"/>
		<path class="st3" d="M1541.3,699c-8.6-3-28.3-27.3-28.3-27.3s30.5-7,39.1-4c8.6,3.2,13,12.7,9.8,21.3
			C1558.8,697.3,1549.7,701.7,1541.3,699L1541.3,699z"/>
		<path class="st3" d="M1490.9,757.3c-9-1.5-32.5-22.1-32.5-22.1s28.9-12.1,37.9-10.6c9,1.6,15,10.3,13.3,19.3
			C1508,752.7,1499.7,758.6,1490.9,757.3z"/>
	</g>
	<polygon class="st5" points="1432.3,762.2 1424.9,762.2 1371,483.8 1364.1,762.2 1356.3,762.2 1347.5,484.3 1295,762.2 
		1286.7,762.2 1322.4,476.1 1323.5,466.8 1393.6,459 1395.8,476.1 	"/>
	<rect x="1238.9" y="403.2" class="st5" width="44.6" height="27.6"/>
	<path class="st5" d="M1497.6,391.1l27-10.9h5.9c1.8,0,3.2,1.5,3.2,3.2v75.9c0,1.8-1.5,3.2-3.2,3.2h-5.9l-27-11.2V391.1z"/>
	<rect x="1442.5" y="394.5" class="st5" width="55.1" height="53.4"/>
	<rect x="1346.8" y="294.3" class="st6" width="35.5" height="6.4"/>
	<rect x="1306.3" y="302.6" class="st6" width="99.9" height="72.9"/>
	<rect x="1306.3" y="366.9" class="st7" width="99.9" height="8.6"/>
	<rect x="1441.6" y="394.5" class="st7" width="2.2" height="53.4"/>
	<rect x="1268.3" y="403.2" class="st7" width="15.2" height="27.6"/>
	<polygon class="st7" points="1395.8,476.1 1322.4,476.1 1323.5,466.8 1393.6,459 	"/>
	<path class="st6" d="M1278.6,368.3h155c4.9,0,8.9,4,8.9,8.9v88.7c0,4.9-4,8.9-8.9,8.9h-155c-4.9,0-8.9-4-8.9-8.9v-88.7
		C1269.7,372.3,1273.6,368.3,1278.6,368.3z"/>
	<path class="st6" d="M1497.1,391.1h0.5l0,0v60.3l0,0h-0.5c-2.4,0-4.3-1.9-4.3-4.3l0,0v-51.7C1492.8,393,1494.7,391.1,1497.1,391.1z
		"/>
	<path class="st6" d="M1524.5,380.2h5.6c2,0,3.6,1.6,3.6,3.6v75.3c0,2-1.6,3.6-3.6,3.6h-5.6l0,0V380.2L1524.5,380.2z"/>
	<rect x="1238.9" y="403.2" class="st7" width="8" height="27.6"/>
	<path class="st6" d="M1235.9,394.5h3.6c3.3,0,6,2.7,6,6v35c0,3.3-2.7,6-6,6h-3.6c-3.3,0-6-2.7-6-6v-35
		C1229.9,397.2,1232.6,394.5,1235.9,394.5z"/>
	<circle class="st5" cx="1306.3" cy="302.6" r="49.8"/>
	<circle class="st3" cx="1306.3" cy="302.6" r="37.3"/>
	<circle class="st5" cx="1398.6" cy="303.6" r="36.3"/>
	<circle class="st3" cx="1398.6" cy="303.6" r="27.2"/>
	<circle class="st3" cx="1395.8" cy="384.1" r="4.8"/>
	<circle class="st8" cx="1411" cy="384.1" r="4.8"/>
	
		<linearGradient id="SVGID_1_" gradientUnits="userSpaceOnUse" x1="1222.0652" y1="202.0568" x2="1222.0652" y2="737.2012" gradientTransform="matrix(1 0 0 -1 -24.78 969.78)">
		<stop  offset="0" style="stop-color:#808080;stop-opacity:0.25"/>
		<stop  offset="0.54" style="stop-color:#808080;stop-opacity:0.12"/>
		<stop  offset="1" style="stop-color:#808080;stop-opacity:0.1"/>
	</linearGradient>
	<path class="st9" d="M1350.8,400.6l-0.3-0.7c2.1,0.7,4.1,1.6,6,2.8c-0.8-7.2-28.5-27.5-33.5-27.5c-5,0-10.5-8.6-10.5-8.6
		s-14.4-2.2-16.6-4.6c-2.2-2.4-17.2-1-20.8-0.1c-3.6,0.8-9.1-2.2-9.1-2.2s-3-5-6.9-5s-8-5.6-8-5.6s-3.6-3.3-6.9-3.9
		c-3.3-0.6-7.5-4.2-9.4-6.9c-1.9-2.8-11.6-4.2-17.2-3.3c-5.5,0.8-20.5-1.1-20.5-1.1c6.1-2.8,7.6-9.4,7.6-9.4
		c-5.5-0.3-19.8-12.3-19.8-12.3s0.6,3.9,1.3,9.3l-0.9-1.2l-0.1,0.1c-0.3-3.9-0.3-7.8-0.1-11.6c0-0.3,0-0.6,0.1-0.9
		c7.2-6.3,10.4-16.2,8.1-25.5c-0.1-0.6-0.3-1.2-0.5-1.9c1.1,0.4,2.2,0.7,3.3,0.8h0.6c1.4,0,2.7-0.6,3.6-1.6l0,0
		c0.2-0.2,0.3-0.4,0.4-0.6c0,0,0.1-0.1,0.1-0.1c0.1-0.2,0.2-0.4,0.2-0.6c0-0.1,0-0.2,0.1-0.2c0-0.2,0.1-0.3,0.1-0.5
		c0-0.1,0-0.3,0-0.4s0-0.2,0-0.3c0-1.3-0.3-2.5-0.8-3.7c-0.9-2.1-2.1-4.3-2-6.6c0-0.2,0-0.4,0.1-0.6c0.2-1.8,1.2-3.5,1.8-5.3v-0.1
		c0.1-0.3,0.1-0.5,0.2-0.8c0-0.1,0-0.2,0.1-0.2c0.1-0.3,0.1-0.6,0.1-0.9c0,0,0,0,0-0.1c0.2-3.5-2.6-6.5-5.8-7.9
		c-2.8-1.3-6.1-1.6-8.7-3.3c-3-2-4.6-5.3-6.8-8.1c-3.2-4.1-8.2-7.1-13.3-6.5c-3.1,0.4-6,2-9.1,2.7c-4.8,1-9.8-0.4-14.5,0.7
		c-1.2,0.2-2.2,0.8-3,1.7c-0.3,0.4-0.5,1-0.6,1.5l0,0c-0.1,0.5-0.1,1,0,1.5v0c0.1,0.5,0.1,1,0.3,1.4l0.1,0.3c0,0.1,0,0.2,0.1,0.3
		c0,0.1,0.1,0.4,0.2,0.6c0.1,0.3,0.2,0.6,0.2,1v0.1c0.1,0.3,0.1,0.7,0.2,1l0,0c0.1,0.7,0.2,1.4,0.3,2.2l0,0c0.2,2.1-0.2,4.1-1.3,5.9
		c-2.1,3.3-6.5,4.8-8.4,8.3c-0.5,0.8-0.7,1.8-0.8,2.7l0,0c0,0.3,0,0.6,0,0.9v0.1c0,0.3,0,0.5,0.1,0.8c0,0.1,0,0.1,0,0.2
		c0,0.2,0.1,0.5,0.2,0.7c0,0.1,0,0.2,0.1,0.2c0.1,0.3,0.2,0.6,0.3,0.8l0,0c0.9,1.9,2.6,3.4,2.9,5.4l0,0c0,0.1,0,0.1,0,0.2
		c0.2,1.5-0.4,3-0.8,4.5c0,0.2-0.1,0.4-0.1,0.5l0,0c0,0.1,0,0.1,0,0.2s0,0.2,0,0.4c0,0.1,0,0.1,0,0.2c0,0.1,0,0.2,0,0.3
		c0,0.1,0,0.2,0,0.2c0,0.1,0,0.2,0,0.3c0,0.1,0,0.1,0,0.2s0,0.2,0.1,0.3l0.1,0.2c0,0.1,0.1,0.2,0.1,0.3l0.1,0.2
		c0.1,0.1,0.1,0.2,0.2,0.3c0,0,0.1,0.1,0.1,0.1c0.1,0.1,0.2,0.3,0.4,0.4c1.1,0.8,2.9,0.6,3.9,1.7c0.1,0.1,0.2,0.3,0.3,0.4l0,0.1
		c0.1,0.1,0.1,0.3,0.2,0.5l0,0c0.1,0.6,0.1,1.3,0,1.9c-0.3,1.7-1,3.2-1.4,4.8c-0.1,0.3-0.1,0.7-0.2,1l0,0c0,0.2,0,0.3,0,0.5v0.1
		c0,0.1,0,0.3,0,0.4s0,0.1,0,0.1c0,0.2,0,0.4,0,0.6c0,0.2,0,0.2,0,0.3l0,0.2c0,0.1,0.1,0.2,0.1,0.3l0.1,0.2c0,0.1,0.1,0.2,0.1,0.3
		c0,0.1,0.1,0.1,0.1,0.2c0.1,0.2,0.2,0.3,0.3,0.5c1,1.4,2.7,1.8,4.4,1.8c1,0,2-0.1,2.9-0.3c0.2,0.5,0.4,1,0.7,1.5
		c1.2,2.4,2.8,4.6,4.7,6.6c0,0.3,0,0.5-0.1,0.8c-0.2,1.9-0.4,3.9-0.7,6c-2.2-1-3.8-1.4-4.5-0.7c-2.8,3.1,0,13.6,0,13.6
		s-13.6,0-16.9,3c-3.3,3-9.4,0-9.4,0s-12.5,1.4-11.6,3.9c0.8,2.5-6.6,0-6.6,0s-5.3,0.6-5,4.2c0.3,3.6-8,5.3-6.9,7.8s-5,4.2-5,4.2
		s-6.1-0.3-3.9,3.3l0,0c0,0-3.3,7.8-6.1,8.3c-2.8,0.5-6.4,6.9-6.4,6.9s-10.7,1.9-10.2,5.3s-16.4,27.2-16.4,27.2s-5.5,11.4-1.7,19.8
		c3.9,8.3,6.6,13.9,7.5,16.9c0.8,3,10.9,16.5,10.8,19c0,0.8,2.5,5,5.9,10.3l-1,1l-2.2,2.3c0,0-6.9,17.2,1.4,18
		c7,0.7,12.1,1.2,14.6,0.5c0.4-0.1,0.8-0.3,1.2-0.5l0.1-0.1c3,4.5,5.2,7.6,5.2,7.6s0.3-0.4,0.8-1.2l0.8,1.2c0,0,0.7-0.9,1.8-2.5
		c-0.4,7.6-0.4,15-0.4,15s3.6-0.6,1.9,16.1c-1.7,16.7,10,30.3,10,30.3v24.7l0,0c0,0,0,0.6,0.1,1.7c0.3,3.5,1.3,11.9,4.3,17.5
		c3.9,7.2,0,26.1,0,26.1s-0.3,15.4,0.7,34.6c0,0.5,0.1,1.1,0.1,1.6c-16.8,14-34.8,32.7-34.8,32.7c0.9,0.2,1.7,0.6,2.5,1.1l-1,1.3
		l-4.6,5.6l0,0l-3.5,4.4l0,0l5.6,17.3l6.1-2.4c0,0,3.3,5.8,2.6,9.7c-0.1,0.7-0.4,1.4-0.8,1.9c-0.2,0.3-0.4,0.6-0.4,1
		c-1.6,6.3,5.1,33.2,15.7,34.4c0,0,3.6,1.2,4.8-2.1c0.6-1.6,0.5-4.2-0.7-8.4c0,0-5.6-6.8-2-14.1c2.1-4.3,5.6-10,8.2-14l1-1.7
		c2.3,2.9,3.7,4.7,3.7,4.7l8.2-8.8c0.2,0.4,0.3,0.7,0.5,1.1c0.6,1.2,1.3,2.4,2.1,3.5l5.5,21.9l2.2-0.5c0,0.5-0.1,1.1-0.1,1.7
		c-0.2,3.9,0,9,1.8,12.7c1.4,2.8,3.7,4.7,7.4,4.6c12.9-0.3,16.6-7.3,16.6-7.3V743l4.4-1c0,0-0.3-38.3-1.5-59.7c0-0.5,0-0.9-0.1-1.4
		c0-0.1,0-0.1,0-0.2l28.4-30.6l2.2-0.9c18.3-7.2,18.6-25.8,18.6-25.8s0-10.3,2.2-18.9c2.2-8.6,0.3-53.3-3.9-64.4s-5.5-23.6-5.5-23.6
		s4.2-5.8,0-10.7c-1.2-1.5-2.2-3-2.9-4.8l5.4-0.9l3.1-0.5l1.7-0.3c-0.8,7.3-1,13,1,14.3c6.1,4.2,26.6-9.7,26.6-9.7
		c-7.5,0-11.6-55.8-10.1-57.2c1.5-1.4,3.8-29.4,1.8-34.3s7-27.2,7-27.2l1.4-2l0,0c0,0,32.7,14.3,36.3,17s15-6.6,16.9-3
		c1.9,3.6,14.1,9,14.1,9s18-1.8,19.9,2.6c1.9,4.4,13.6,14.9,13.6,14.9c0-2.4,0.2-4.9,0.4-7.3c0.2,0.6,0.5,1.2,0.7,1.7
		c5.5,13.1,14.7,29.6,23.2,20.7C1362.9,428.7,1355.5,410,1350.8,400.6z M1104.4,459.6v0.2V459.6L1104.4,459.6z M1098,395.5
		l-3.5,37.2l-6.9,7.2l-0.8,0.9l-7.2-7.8c0,0-3.6-1.7,0-4.7s-6.1-10-6.1-10s-0.3-5,3.3-6.4c3.6-1.4,8.3-10.6,8.3-10.6l13-6.6l0,0l0,0
		L1098,395.5z M1144.3,585.7c0.3-0.2,0.5-0.4,0.8-0.6c1.6-0.9,2.6,0.1,3.1,1.8c0.7,2.8,0.5,5.8-0.6,8.5c-1.9,4.4,2.8,22.2,2.8,22.2
		s-6.1,2.8-7.2,8.1c-0.2,0.6-0.4,1.3-0.8,1.8c-0.1-0.5-0.1-0.9-0.2-1.3c-0.5-3.3-0.8-5.5-0.8-5.5c-1-4.3-1.2-8.7-0.6-13
		c0.9-5.3,2.7-16.2,3.3-20.3C1144.3,586.3,1144.4,585.7,1144.3,585.7L1144.3,585.7z"/>
	<path class="st5" d="M1183,315.2l1.8-1.2l5.1,10.7l-1.9,2.3h-5.9c0,0,0.2-5.8,0.3-6C1182.5,320.7,1183,315.2,1183,315.2z"/>
	<path class="st10" d="M1148.2,738.4v22.9c0,0-3.7,7-16.6,7.3c-3.2,0.2-6.2-1.7-7.4-4.6c-1.8-3.6-2-8.7-1.8-12.7
		c0.1-2,0.3-3.9,0.6-5.9L1148.2,738.4z"/>
	<path class="st7" d="M1148.2,738.4v7.1l-25.9,5.8c0.1-2,0.3-3.9,0.6-5.9L1148.2,738.4z"/>
	<path class="st6" d="M1152.6,742.8l-32.4,7.2l-5.5-21.9c-0.8-1.1-1.5-2.3-2.1-3.5c-0.4-0.7-0.7-1.4-1-2.2
		c-6-13.8-8.7-38.7-9.9-59.9c-0.1-1.1-0.1-2.1-0.2-3.2c-0.9-19.2-0.7-34.5-0.7-34.5s3.9-18.8,0-26c-3-5.6-4-13.9-4.3-17.5
		c-0.1-1.1-0.1-1.7-0.1-1.7l0.6-1.6l2.4-6.5h26.9l15.6,13.2l2.4,2l-0.3,1.7c-0.7,4.1-2.5,15-3.3,20.3c-0.6,4.3-0.4,8.7,0.6,13
		c0,0,0.3,2.1,0.8,5.5c0.1,0.8,0.3,1.7,0.4,2.7c2,12.3,5.7,34.7,7.3,40.1c0.4,1.5,0.8,5.2,1.1,10.2c0.1,1,0.1,2,0.2,3.1
		C1152.3,704.6,1152.6,742.8,1152.6,742.8z"/>
	<path class="st7" d="M1148.2,761v0.2c0,0-3.7,7-16.6,7.3c-3.2,0.2-6.2-1.7-7.4-4.6C1129.9,765.3,1139.3,766.2,1148.2,761z"/>
	<path class="st11" d="M1353.2,440.4c-8.5,8.9-17.7-7.6-23.2-20.6c-3.1-7.3-5-13.6-5-13.6l22.7-9.6c0,0,1.4,2.2,3.1,5.7
		C1355.5,411.7,1362.9,430.3,1353.2,440.4z"/>
	<path class="st11" d="M1184.9,310.6c-0.4,8.2,0.3,16.5,1.8,24.5c0,0-46.3,5-42.1-2.2c2.4-4.2,4-15.4,4.9-23.9
		c0.6-6,0.9-10.7,0.9-10.7s44.3-17.7,37.7-2.8C1186.1,300,1185.2,305.3,1184.9,310.6z"/>
	<polygon class="st5" points="1188.8,429.6 1182.6,503.8 1211.1,499.1 1206.1,437.9 1207.8,421.5 	"/>
	<polygon class="st7" points="1211.1,499.2 1198.7,501.3 1182.6,503.9 1183.7,490.4 1188.8,429.7 1195.3,426.9 1199.8,425 
		1207.8,421.6 1206.1,438 	"/>
	<path class="st10" d="M1091,743.2c-3.6,7.3,2,14,2,14c1.2,4.2,1.3,6.8,0.7,8.3c-1.2,3.2-4.8,2-4.8,2c-11.3-1.2-18.2-31.8-15.3-35.3
		c2.9-3.5-1.8-11.5-1.8-11.5l-6.1,2.4l-5.6-17.2l3.5-4.4l4.6-5.6l3.1-3.8l31,32.3c0,0-1.3,2-3.1,4.8
		C1096.6,733.2,1093.1,738.9,1091,743.2z"/>
	<path class="st7" d="M1151.2,683.3l-38.6,41.4c-6.8-13.2-9.7-39.7-10.9-62.1c7.2-6,14.1-11.1,19.4-13.6c0,0,17.8-12.9,21.5-19
		c2,12.3,5.7,34.7,7.3,40.1C1150.4,671.8,1150.8,676.7,1151.2,683.3z"/>
	<polygon class="st7" points="1142,584.9 1097,578.1 1099.5,571.7 1126.3,571.7 	"/>
	<path class="st7" d="M1151,680.2l-39.4,42.3c-6.1-13.8-8.8-38.7-9.9-59.9c-0.1-1.1-0.1-2.1-0.2-3.2c7.3-6,14.3-11.3,19.5-13.8
		c0,0,16.6-12,21.1-18.4c0.1,0.8,0.3,1.7,0.4,2.7c2,12.3,5.7,34.7,7.3,40.1C1150.3,671.5,1150.7,675.2,1151,680.2z"/>
	<path class="st7" d="M1102.3,724.4c0,0-1.3,2-3.1,4.8c-6.6-8.4-22.3-27.6-30.9-33.3l3.1-3.8L1102.3,724.4z"/>
	<path class="st6" d="M1202.5,605.7c-2.2,8.6-2.2,18.8-2.2,18.8s-0.3,18.6-18.6,25.8l-2.2,0.8l-75.6,81.1c0,0-28-36.6-37.1-38.8
		c0,0,36.8-38,54.3-46.3c0,0,21.1-15.2,22.2-20.5c1.1-5.3,7.2-8,7.2-8s-4.7-17.7-2.8-22.2c1.1-2.7,1.3-5.7,0.6-8.5
		c-0.5-1.7-1.5-2.7-3.1-1.8c-0.3,0.2-0.6,0.4-0.8,0.6l-47.9-7.2V555c0,0-11.6-13.6-10-30.2c1.7-16.6-1.9-16.1-1.9-16.1
		s0.2-28.1,2.5-30.4s25.1-13.1,25.1-13.1l71.3,12.7l2.9,13.6c0,0,2.5,10.9,6.6,15.7s0,10.6,0,10.6s1.4,12.5,5.5,23.6
		S1204.7,597.1,1202.5,605.7z"/>
	<path class="st7" d="M1188.1,295.5c-2,4.5-2.9,9.8-3.2,15.1c-10.3,8.9-25.9,8.3-35.4-1.5c0.6-6,0.9-10.7,0.9-10.7
		S1194.7,280.5,1188.1,295.5z"/>
	<path class="st11" d="M1193.8,290.3c0,14.2-11.5,25.8-25.8,25.7c-14.2,0-25.8-11.5-25.7-25.8c0-14.2,11.5-25.8,25.8-25.7
		c11.9,0,22.2,8.2,25,19.7C1193.5,286.2,1193.8,288.3,1193.8,290.3z"/>
	<path class="st7" d="M1172.9,335.1c0,0-18.5-8.6-19.7-9.7c-1.2-1.1-39.6,97.5-39.6,97.5l-10.8,49c0,0,57.6,24.6,70.1,21.3
		c12.5-3.3,13.6,0,13.6,0s12.7-71.5,16.9-77.8s-3.9-71.2-3.9-71.2l-14.4-18.8L1172.9,335.1z"/>
	<path class="st7" d="M1172.9,331.8c0,0-18.5-8.6-19.7-9.7c-1.2-1.1-39.6,97.5-39.6,97.5l-10.8,49c0,0,57.6,24.6,70.1,21.3
		c12.5-3.3,13.6,0,13.6,0s12.7-71.5,16.9-77.8s-3.9-71.2-3.9-71.2l-14.4-18.8L1172.9,331.8z"/>
	<path class="st3" d="M1203.3,413.8c-0.8,1.3-2.1,5.4-3.5,11.1c-1,4-2,8.7-3.1,13.7c-4.9,22.9-10.3,53-10.3,53s-0.3-1-2.7-1.4
		c-1.9-0.3-5.3-0.1-10.8,1.4c-12.5,3.3-70.1-21.3-70.1-21.3l1.7-7.5l9.1-41.5c0,0,38.5-98.6,39.6-97.5c0.7,0.7,7.9,4.2,13.4,6.7
		c3.5,1.7,6.3,2.9,6.3,2.9l11.6-9.2l0.6-0.5l14.3,18.8C1199.5,342.6,1207.5,407.4,1203.3,413.8z"/>
	<path class="st7" d="M1159.3,343.1c1.7,6.4-2.2,16.9-2.2,16.9s-13.3,32.7-17.2,47.8c-3.9,15.1-26.1,45.6-26.1,45.6
		s-3.3,3.3-7.8,7.8c-0.5,0.5-1,1-1.6,1.6l9.1-41.5c0,0,38.5-98.6,39.6-97.5c0.7,0.7,7.9,4.2,13.4,6.7
		C1163.1,333.6,1158.2,338.9,1159.3,343.1z"/>
	<path class="st5" d="M1157.6,343.1c1.7,6.4-2.2,16.9-2.2,16.9s-13.3,32.7-17.2,47.8s-26.1,45.6-26.1,45.6s-3.3,3.3-7.8,7.8
		c-0.5,0.5-1.1,1.1-1.7,1.7c-8.9,8.9-21.4,21.3-25.3,24.9c-0.6,0.5-1,0.9-1.1,1c-0.4,0.2-0.7,0.4-1.2,0.5c-2.6,0.7-7.6,0.2-14.6-0.5
		c-8.3-0.8-1.4-18-1.4-18l2.2-2.3l2-2.1l22.6-23.3l1.7-1.8l6.9-7.1l3.5-37.1l0.1-0.9c0,0-1-2.4-2.6-5.9
		c-4.2-9.7-12.5-28.5-15.6-34.5c-0.3-0.7-0.6-1.2-0.8-1.6c0,0,0-0.1-0.1-0.1c-2.2-3.6,3.9-3.3,3.9-3.3s6.1-1.7,5-4.2
		s7.2-4.2,6.9-7.8s5-4.2,5-4.2s7.5,2.5,6.6,0c-0.8-2.5,11.6-3.9,11.6-3.9s6.1,3,9.4,0c3.3-3,17-3,17-3s-2.8-10.5,0-13.6
		s23.7,13.6,23.7,13.6S1156,336.8,1157.6,343.1z"/>
	<path class="st7" d="M1088.4,485c0,0,23,32.4,39.1,21.9c16.1-10.5-21.6-38-21.6-38L1088.4,485z"/>
	<path class="st11" d="M1088.4,483.3c0,0,23,32.4,39.1,21.9c16.1-10.5-21.6-38-21.6-38L1088.4,483.3z"/>
	<path class="st7" d="M1198.7,501.1c1.8-15.3,6.8-38.3,2.7-45.3c-2.1-3.5-3.6-10-4.7-17.3c-0.6-3.9-1.1-7.9-1.5-11.8
		c-1-10.2-1.3-19-1.3-19s-10-44.5-8-53.6c1.2-5.7-0.2-20-1.4-30l0.6-0.5l14.3,18.8c0,0,8,64.8,3.9,71.2c-0.8,1.3-2.1,5.4-3.5,11.1
		l7.9-3.3l-1.7,16.3l5,61.2L1198.7,501.1z"/>
	<path class="st5" d="M1184.7,314c0,0,14.3,12,19.8,12.3c0,0-1.5,6.6-7.6,9.4c0,0,15,2,20.5,1.1c5.5-0.9,15.2,0.5,17.2,3.3
		c1.9,2.8,6.1,6.4,9.5,6.9s6.9,3.9,6.9,3.9l-24.4,36c0,0-8.9,22.2-6.9,27.1s-0.3,33-1.8,34.3c-1.5,1.4,2.6,57.1,10.1,57.1
		c0,0-20.5,13.9-26.6,9.7c-6.1-4.2,7.8-49,1.7-59.3c-6.1-10.3-7.5-48-7.5-48s-10-44.5-8-53.6C1189.5,345.1,1184.7,314,1184.7,314z"
		/>
	<path class="st7" d="M1350.8,402.3c-7.4-2.3-18.7-2.4-20.8,17.5c-3.1-7.3-5-13.6-5-13.6l22.7-9.6
		C1347.7,396.5,1349.1,398.8,1350.8,402.3z"/>
	<path class="st5" d="M1237.4,349.2l13.6,1.7c0,0,4.2,5.5,8,5.5c3.9,0,6.9,5,6.9,5s5.5,3,9.1,2.2c3.6-0.8,18.6-2.2,20.8,0.1
		s16.6,4.6,16.6,4.6s5.5,8.6,10.5,8.6c5,0,32.7,20.2,33.5,27.4c0,0-27.4-17.5-27.7,20.9c0,0-11.6-10.4-13.6-14.8
		c-1.9-4.4-19.9-2.6-19.9-2.6s-12.2-5.4-14.1-9c-1.9-3.6-13.3,5.7-16.9,3c-3.6-2.7-36.3-17-36.3-17l-10.1-19L1237.4,349.2z"/>
	<circle class="st10" cx="1174.8" cy="380.5" r="2.4"/>
	<circle class="st10" cx="1172.4" cy="429.6" r="2.4"/>
	<circle class="st10" cx="1174.8" cy="403.8" r="2.4"/>
	<circle class="st10" cx="1168" cy="455.5" r="2.4"/>
	<path class="st7" d="M1093.7,765.6c-1.2,3.2-4.8,2-4.8,2c-11.3-1.2-18.2-31.8-15.3-35.3c2.9-3.5-1.8-11.6-1.8-11.6l-6.1,2.4
		l-5.6-17.2l3.5-4.4c3.5,6.1,8.6,14.9,9.8,17.1c2.3,4.7,3.3,9.8,3.1,15C1076.3,739,1082.6,764.9,1093.7,765.6z"/>
	<path class="st7" d="M1193,284.2c-0.6-0.2-1.1-0.4-1.7-0.6c-1.9-0.8-3.9-1.7-5.1-3.3c-1.1-1.5-1.4-3.7-3-4.6
		c-1.9-1-4.2,0.4-6.2,0.8c-2.4,0.6-5-0.1-7.4-1c-3.5-1.3-8.5-3.7-12.1-1.2c-2.8,1.9-1.7,6-2.5,8.9c-1.1,4.5-5.9,7.5-6.8,12.1
		c-0.4,2-0.1,4.5-1.8,5.7c-0.5,0.3-1,0.6-1.6,0.7c-6.3-12.8-1.1-28.2,11.7-34.5c12.8-6.3,28.2-1.1,34.5,11.7
		C1192,280.6,1192.6,282.4,1193,284.2L1193,284.2z"/>
	<path class="st5" d="M1169.7,273.8c2.4,0.9,4.9,1.6,7.4,1c2.1-0.5,4.3-1.9,6.2-0.8c1.7,0.9,2,3.1,3,4.6c1.2,1.7,3.2,2.6,5.1,3.3
		c1.4,0.7,2.9,1.1,4.5,1.3c1.6,0.2,3.2-0.4,4.2-1.6c1.5-1.8,1-4.5,0.1-6.6c-0.9-2.1-2.1-4.3-2-6.6c0.1-2.7,2.1-5.1,2.3-7.9
		c0.2-3.5-2.6-6.5-5.8-7.9c-2.8-1.3-6.1-1.6-8.7-3.3c-3-1.9-4.6-5.3-6.8-8.1c-3.2-4.1-8.2-7.1-13.3-6.5c-3.1,0.4-6,2-9.1,2.6
		c-4.8,1-9.8-0.4-14.5,0.7c-1.1,0.2-2.2,0.8-3,1.6c-1.2,1.6-0.6,3.7,0,5.6c0.9,3.4,1.3,7.2-0.5,10.2c-2.1,3.4-6.5,4.8-8.4,8.2
		c-1.1,2.1-1.2,4.5-0.2,6.6c0.9,1.9,2.7,3.5,3,5.6c0.2,1.5-0.4,3-0.8,4.5c-0.3,1.5-0.2,3.3,1,4.2c1.2,0.8,2.9,0.6,3.9,1.7
		c0.6,0.8,0.7,1.9,0.4,2.9c-0.3,1.7-1,3.2-1.4,4.8c-0.5,1.6-0.3,3.4,0.6,4.8c1.6,2.2,4.9,2,7.5,1.5c0.8-0.1,1.5-0.4,2.1-0.8
		c1.7-1.3,1.4-3.7,1.8-5.7c0.9-4.6,5.7-7.5,6.8-12.1c0.7-2.9-0.4-7,2.5-8.9C1161.2,270.1,1166.2,272.5,1169.7,273.8z"/>
	<path class="st7" d="M1165.7,574.4c0,0,26.1,16.6,26.9,23L1165.7,574.4z"/>
	<path class="st7" d="M1164.3,587.7c0,0,29.9,14.4,28.3,19.4L1164.3,587.7z"/>
	<path class="st7" d="M1162.3,600.5c0,0,16.9,8.9,18,14.1L1162.3,600.5z"/>
	<path class="st7" d="M1169.5,620.4c0,0,11.1,9.7,13.3,7.2C1185.1,625.1,1169.5,620.4,1169.5,620.4z"/>
	<path class="st7" d="M1154,626.5c0,0,8.6,13.8,4.5,14.7S1154,626.5,1154,626.5z"/>
	<path class="st7" d="M1116.1,380.5c0,0-14.7,8.9-10.3,11.1C1110.3,393.8,1116.1,380.5,1116.1,380.5z"/>
	<path class="st7" d="M1116.1,347.8c0,0-15,27.4-8,25.5S1116.1,347.8,1116.1,347.8z"/>
	<path class="st7" d="M1275.1,375.3c0,0-9.1,10.8-7.5,16.6L1275.1,375.3z"/>
	<path class="st7" d="M1298.9,380.5c0,0-13.7,12.2-11.7,13.6L1298.9,380.5z"/>
	<path class="st7" d="M1307.5,395.5c0,0-1.4,8,0.8,8.3L1307.5,395.5z"/>
	<path class="st12" d="M1157.8,564.5c-3.5,4.6-3.5,12.7-5.1,16c-0.9,1.8-2.8,5-4.4,7.5c-0.5-1.7-1.5-2.7-3.1-1.8
		c-1-7.6-2.8-20.8-3.4-23.4c-0.8-3.7,8.3-13.7,8.3-13.7s8.9,1.9,11.2,6.4C1163.6,560.2,1161.3,560,1157.8,564.5z"/>
	<path class="st7" d="M1111.6,468.4c-10,1.4-28.5,28-28.5,28s-2.4-3.5-5.8-8.5c-4.3-6.3-10-14.8-14.1-21.3l24.3-25.1l4.4,4.8
		c0,0,8.6,8.6,8.6,10.2c0,0.6,1.7,2.6,3.8,4.8C1107.5,464.6,1111.6,468.4,1111.6,468.4z"/>
	<path class="st7" d="M1079.8,355.9c-0.3-0.7-0.6-1.2-0.8-1.6l10.7,0.7l5.7,35.3C1091.2,380.7,1082.9,362,1079.8,355.9z"/>
	<path class="st7" d="M1102.7,462.9c-8.9,8.9-21.4,21.3-25.3,24.9c-0.6,0.5-1,0.9-1.1,1c-0.4,0.2-0.7,0.4-1.2,0.5
		c-3.9-5.8-9.5-14-13.8-20.8l2-2.1l22.7-23.3l2.8,3c0,0,8.6,8.6,8.6,10.2C1097.2,457.3,1099.9,460.1,1102.7,462.9z"/>
	<path class="st5" d="M1091.4,355.1l-12.5-0.8c0,0-3.3,7.8-6.1,8.3s-6.4,6.9-6.4,6.9s-10.7,1.9-10.2,5.3
		c0.5,3.3-16.4,27.1-16.4,27.1s-5.5,11.4-1.7,19.7c3.9,8.3,6.6,13.9,7.5,16.9c0.8,3,10.7,16.3,10.6,18.8s25.1,39.1,25.1,39.1
		s18.6-26.6,28.5-28c0,0-11.1-10.2-11.1-11.9c0-1.7-8.5-10.2-8.5-10.2l-10.8-11.6c0,0-3.6-1.7,0-4.7s-6.1-10-6.1-10s-0.3-5,3.3-6.4
		s8.3-10.5,8.3-10.5l13-6.6L1091.4,355.1z"/>
	<path class="st7" d="M1043.8,410.2c0,0,15-3,15.2-1.1C1059.3,411,1043.8,410.2,1043.8,410.2z"/>
	<path class="st7" d="M1056.3,425.3c0,0,12.7,1.7,12.1,4.4S1056.3,425.3,1056.3,425.3z"/>
	<path class="st7" d="M1066.8,378.2c0,0,12.2,17.3,13.9,13.7L1066.8,378.2z"/>
	<g class="st13">
		<path d="M1140,249.6c0.1-2-0.2-4-0.7-6c-0.2-0.8-0.4-1.7-0.5-2.5c-0.1,1.4,0.1,2.8,0.5,4.2C1139.7,246.7,1139.9,248.1,1140,249.6z
			"/>
		<path d="M1198.3,267.9c0.3-2.5,2-4.8,2.2-7.3c0-0.4,0-0.9,0-1.3c-0.3,2.6-2.1,4.9-2.2,7.5C1198.2,267.1,1198.2,267.5,1198.3,267.9
			z"/>
		<path d="M1200.1,279.9c-1.1,1.2-2.7,1.8-4.2,1.6c-1.6-0.2-3.1-0.6-4.5-1.3c-1.9-0.8-3.9-1.7-5.1-3.3c-1.1-1.5-1.4-3.7-3-4.6
			c-1.9-1-4.2,0.4-6.2,0.8c-2.4,0.6-5-0.1-7.4-1c-3.5-1.3-8.5-3.7-12.1-1.2c-2.8,1.9-1.7,6-2.5,8.9c-1.1,4.5-5.9,7.5-6.8,12.1
			c-0.4,2-0.1,4.5-1.8,5.7c-0.6,0.4-1.4,0.7-2.1,0.8c-2.6,0.6-5.9,0.7-7.5-1.5c-0.5-0.6-0.7-1.4-0.8-2.1c-0.2,1.3,0.1,2.7,0.8,3.8
			c1.6,2.2,4.9,2,7.5,1.5c0.8-0.1,1.5-0.4,2.1-0.8c1.7-1.3,1.4-3.7,1.8-5.7c0.9-4.6,5.7-7.5,6.8-12.1c0.7-2.9-0.4-7,2.5-8.9
			c3.6-2.5,8.6-0.1,12.1,1.2c2.4,0.9,4.9,1.6,7.4,1c2.1-0.5,4.3-1.9,6.2-0.8c1.7,0.9,2,3.1,3,4.6c1.2,1.7,3.2,2.6,5.1,3.3
			c1.4,0.7,2.9,1.1,4.5,1.3c1.6,0.2,3.2-0.4,4.2-1.6c0.8-1.1,1.1-2.5,0.9-3.8C1200.9,278.5,1200.6,279.3,1200.1,279.9z"/>
		<path d="M1133.1,274.2c-0.3-2.1-2-3.7-3-5.6c-0.3-0.7-0.6-1.5-0.6-2.3c-0.2,1.4,0.1,2.7,0.6,3.9c0.9,1.9,2.6,3.4,2.9,5.4
			C1133.2,275.2,1133.2,274.7,1133.1,274.2z"/>
		<path d="M1137.7,287.2c0.2-0.9,0.1-1.9-0.5-2.6c-0.9-1.1-2.7-0.8-3.9-1.7c-0.6-0.5-1-1.2-1.1-2c-0.2,1.4,0,2.9,1.1,3.6
			c1.1,0.8,2.9,0.6,3.9,1.7C1137.5,286.5,1137.7,286.9,1137.7,287.2z"/>
	</g>
	<path class="st3" d="M940.5,717.6c0,0-34.4-2.1-30.3,22c0,0-0.8,4.3,3.1,6.2c0,0,0.1-1.8,3.5-1.2c1.2,0.2,2.5,0.3,3.7,0.2
		c1.7-0.1,3.3-0.8,4.6-1.9l0,0c0,0,9.7-4,13.4-19.8c0,0,2.8-3.4,2.7-4.3l-5.8,2.5c0,0,2,4.2,0.4,7.7c0,0-0.2-7.5-1.3-7.3
		c-0.2,0-3,1.5-3,1.5s3.4,7.3,0.8,12.6c0,0,1-9-1.9-12.1l-4.1,2.4c0,0,4,7.5,1.3,13.7c0,0,0.7-9.4-2.1-13.1l-3.7,2.9
		c0,0,3.7,7.4,1.5,12.5c0,0-0.3-11-2.3-11.8c0,0-3.2,2.9-3.7,4c0,0,2.6,5.4,1,8.2c0,0-1-7.3-1.8-7.3c0,0-3.2,4.8-3.6,8.2
		c0,0,0.1-4.9,2.8-8.6c-1.9,0.4-3.6,1.2-4.9,2.6c0,0,0.5-3.4,5.7-3.7c0,0,2.7-3.7,3.4-3.9c0,0-5.2-0.4-8.4,1c0,0,2.8-3.2,9.3-1.8
		l3.7-3c0,0-6.8-0.9-9.8,0.1c0,0,3.3-2.9,10.7-0.8l4-2.4c0,0-5.8-1.3-9.3-0.8c0,0,3.7-2,10.5,0.2l2.9-1.3c0,0-4.3-0.8-5.5-1
		c-1.3-0.1-1.3-0.5-1.3-0.5c2.7-0.4,5.5-0.1,8,0.9C934.5,720.2,940.6,718,940.5,717.6z"/>
	<path class="st3" d="M1787.5,806.6c0,0-34.4-2.1-30.3,22c0,0-0.8,4.3,3.1,6.2c0,0,0.1-1.8,3.5-1.2c1.2,0.2,2.5,0.3,3.7,0.2
		c1.7-0.1,3.3-0.8,4.6-1.9l0,0c0,0,9.7-4,13.4-19.8c0,0,2.8-3.4,2.7-4.3l-5.8,2.5c0,0,2,4.2,0.4,7.7c0,0-0.2-7.5-1.3-7.3
		c-0.2,0-3,1.5-3,1.5s3.4,7.3,0.8,12.6c0,0,1-9-1.9-12.1l-4.1,2.4c0,0,4,7.5,1.3,13.7c0,0,0.7-9.4-2.1-13.1l-3.7,2.9
		c0,0,3.7,7.4,1.5,12.5c0,0-0.3-11-2.3-11.8c0,0-3.2,2.9-3.7,4c0,0,2.6,5.4,1,8.2c0,0-1-7.3-1.8-7.3c0,0-3.2,4.8-3.6,8.2
		c0,0,0.1-4.9,2.8-8.6c-1.9,0.4-3.6,1.2-4.9,2.6c0,0,0.5-3.4,5.7-3.7c0,0,2.7-3.7,3.4-3.9c0,0-5.2-0.4-8.4,1c0,0,2.8-3.2,9.3-1.8
		l3.7-3c0,0-6.8-0.9-9.8,0.1c0,0,3.3-2.9,10.7-0.8l4-2.4c0,0-5.8-1.3-9.3-0.8c0,0,3.7-2,10.5,0.2l2.9-1.3c0,0-4.3-0.8-5.5-1
		c-1.3-0.1-1.3-0.5-1.3-0.5c2.7-0.4,5.5-0.1,8,0.9C1781.5,809.2,1787.6,807,1787.5,806.6z"/>
	<ellipse class="st1" cx="916.8" cy="747.9" rx="24.3" ry="4.1"/>
</g>
<circle class="st14" cx="1550.5" cy="207.5" r="14.5"/>
<circle class="st15" cx="726" cy="604" r="10"/>
<circle class="st16" cx="179" cy="150" r="18"/>
<path class="st17" d="M0,831v249l1932.1-3.2v-75.4c-2.2,16-148.4-49.2-344.3-12.9c-24.1,6.2-124.4,91.9-184.9-1
	c-53.6-78.9-436.1-298.5-733.3,20.9c0.6-8.7,8-396.8-162.9-332.9C337.4,738.7,223.5,873.8,0,831z"/>
<path class="st18" d="M30.5,843.3L0,1081.8l1984.2-19.8c66.9,32.3-226.7-139.8-526.7-42.7c0.2,4.3-42.6,39.8-88.8-21.1
	c-38.9-51.2-384.4-294.9-715.1,10.2c0,0-55.3-354.3-226.3-309.1C261.7,743.1,233.9,870.2,30.5,843.3z"/>
<path class="st19" d="M0,831v249l1950.5,2.8c0,0-313.8-173.5-545.3-46.7c-23.1,12.8-59.6,7.7-65.9-6.7
	c-43.2-85.9-361.9-325-685.9-14c0,0,18.1-385.5-205-311.9C336.7,747.3,168.5,902.6,0,831z"/>
<circle class="st20" cx="198" cy="637" r="24.5"/>
<g class="st21">
	<line class="st22" x1="197.5" y1="626" x2="197.5" y2="646"/>
	<line class="st22" x1="206.5" y1="636.5" x2="197.5" y2="646"/>
	<line class="st22" x1="197.5" y1="646" x2="188.5" y2="637.5"/>
</g>
</svg>
