<?xml version="1.0" encoding="utf-8"?>
<!-- Generator: Adobe Illustrator 23.0.3, SVG Export Plug-In . SVG Version: 6.00 Build 0)  -->
<svg version="1.1" id="Layer_1" xmlns="http://www.w3.org/2000/svg" xmlns:xlink="http://www.w3.org/1999/xlink" x="0px" y="0px"
	 viewBox="0 0 250 250" style="enable-background:new 0 0 250 250;" xml:space="preserve">
<style type="text/css">
	.st0{fill:none;stroke:#FFFFFF;stroke-width:4.6583;stroke-miterlimit:10;}
	.st1{fill:none;stroke:#FFFFFF;stroke-width:4.6578;stroke-miterlimit:10;}
	.st2{fill:#FFFFFF;}
</style>
<g>
	<path class="st0" d="M119.5,220.3c3.5,1.7,7.5,1.7,11,0l74.5-43c3.3-2.1,5.3-5.6,5.5-9.5v-86c-0.2-3.9-2.2-7.4-5.5-9.5l-74.5-42.9
		c-3.4-1.8-7.5-1.8-11,0L45,72.3c-3.2,2.1-5.3,5.6-5.5,9.5v86c0.2,3.9,2.2,7.4,5.5,9.5L119.5,220.3z"/>
	<ellipse id="Oval_1_" class="st1" cx="125" cy="124.7" rx="46.9" ry="46.2"/>
	<circle id="Oval-Copy_1_" class="st2" cx="125" cy="124.7" r="13.9"/>
	<circle id="Oval-Copy-2_1_" class="st2" cx="147.8" cy="104.4" r="4.7"/>
</g>
</svg>
